<svg xmlns="http://www.w3.org/2000/svg" width="92.434" height="92.757" viewBox="0 0 92.434 92.757">
  <g id="artes" transform="translate(2.013 -10.358) rotate(7)">
    <path id="Caminho_159" data-name="Caminho 159" d="M76.4,86.929H10.187c-.466-.16-.928-.336-1.4-.478a11.4,11.4,0,0,1-8.382-8.78C.3,77.241.137,76.825,0,76.4V74.365a6.722,6.722,0,0,0,.346-.95c1.046-5.078,4.121-8.148,9.154-9.3.474-.108.936-.267,1.534-.441-.267-.687-.477-1.264-.712-1.83Q5.587,50.408.849,38.973c-1.131-2.736-.64-3.93,2.048-5.052q4.929-2.057,9.868-4.089c2.944-1.219,4.074-.773,5.278,2.116,2.325,5.582,4.685,11.151,6.933,16.765.756,1.888,2.077.843,3.131.76,1.32-.1.724-1.116.558-1.825-1.9-8.141-3.825-16.275-5.693-24.422a28.731,28.731,0,0,1-1.044-6.144c-.021-4.181.413-8.363.444-12.546.017-2.189.721-3.7,2.755-4.536h1.019a20.652,20.652,0,0,1,3,3.259c2.067,3.5,3.939,7.117,5.846,10.711a10.7,10.7,0,0,1,.965,2.508c2.155,9.059,4.272,18.126,6.409,27.189.133.565.337,1.113.551,1.807a11.956,11.956,0,0,1,1.874-1.294c1.636-.685,1.795-1.925,1.857-3.528.167-4.338.619-8.664.868-13a4.111,4.111,0,0,0-.554-2.337c-2.736-4.2-2.488-7.882.792-11.765a54.127,54.127,0,0,0,4.083-5.4,7.812,7.812,0,0,0,1.33-5.962c-.129-.648.529-1.454.826-2.187h.679a28.914,28.914,0,0,1,7.138,8.529c3.1,5.92,2.991,11.693-.806,17.3a3.293,3.293,0,0,0-.61,1.524c-.262,4.17-.49,8.344-.645,12.518a1.738,1.738,0,0,0,.792,1.356c1.378.613,2.84,1.041,4.256,1.534,1.767-2.444,5.433-12.835,5.964-16.309a4.208,4.208,0,0,1,1.51-2.6C75.2,21.835,78.26,20,81.3,18.147c1.587-.969,2.4-.624,2.82,1.154.8,3.35,1.563,6.709,2.35,10.062a4.205,4.205,0,0,1-.782,3.476,53.056,53.056,0,0,0-4,7.045c-2,4.425-3.543,9.067-5.69,13.415-1.722,3.484-.231,6.981-1.106,10.441.638.09.966.14,1.3.181,5.714.719,10.064,5.1,10.337,10.408.321,6.222-3.133,10.807-9.193,12.224A6.405,6.405,0,0,0,76.4,86.929ZM43.391,84.218q15.186,0,30.37-.011a19.138,19.138,0,0,0,3.2-.25,8.715,8.715,0,0,0,7.114-9.636,8.866,8.866,0,0,0-9.645-7.785c-2.541.278-2.893-.12-2.322-2.63A16.77,16.77,0,0,0,40.6,52.962c-1.189,2.486-1.3,2.518-3.741,1.057C28.25,48.867,16.877,54.391,15.9,64.2c-.277,2.785-.348,2.84-3.1,2.39a8.859,8.859,0,0,0-9.954,9.779c.735,4.861,4.264,7.822,9.5,7.839C22.693,84.239,33.042,84.216,43.391,84.218ZM18.352,39.986c-.82-3.028-.82-3.028-3.354-1.982-.835.345-1.667.7-2.507,1.031-.875.348-1.824.686-2.274-.519-.393-1.051.356-1.531,1.217-1.866.474-.184.936-.394,1.4-.594l3.45-1.47-1.235-2.861L2.806,36.807c3.536,8.52,6.979,16.812,10.421,25.1a19.406,19.406,0,0,1,9.1-10.8,1.225,1.225,0,0,0,.31-1.1,16.467,16.467,0,0,0-.982-2.168c-1.778.722-3.367,1.48-5.033,1.981-.556.167-1.309-.325-1.972-.516.333-.616.513-1.5,1.03-1.8,1.262-.727,2.715-1.116,4.011-1.793a1.683,1.683,0,0,0,.6-1.379,6.387,6.387,0,0,0-.792-1.8c-.808.3-1.545.537-2.256.836-.876.369-1.729.466-2.14-.557s.331-1.543,1.171-1.908C16.943,40.608,17.606,40.314,18.352,39.986Zm16.74,10.061c-.1-.6-.149-1.037-.25-1.467-1.027-4.4-2.08-8.786-3.081-13.187-.22-.964-.619-2.243.738-2.591,1.389-.355,1.555.915,1.79,1.92q1.674,7.17,3.371,14.336c.156.656.371,1.3.6,2.082a5.711,5.711,0,0,0,1.724-6.313c-1.409-4.991-2.411-10.1-3.593-15.151-.714-3.054-1.449-6.1-2.184-9.2-2.913,1.478-2.913,1.478-2.251,4.259a5.275,5.275,0,0,1,.38,1.8,4.983,4.983,0,0,1-.893,1.565,5.049,5.049,0,0,1-1.514-.98,5.1,5.1,0,0,1-.513-1.77c-.7-2.844-.695-2.844-3.779-2.8.086.556.133,1.108.258,1.642q2.666,11.458,5.351,22.912C31.869,49.794,31.87,49.794,35.092,50.047ZM56.312,5.489c-1.65,2.657-3.2,5.247-4.852,7.764-.677,1.029-1.627,1.874-2.394,2.85a6.049,6.049,0,0,0-.149,7.384,2.693,2.693,0,0,0,1.626.985c2.243.226,4.5.35,6.756.372a2.394,2.394,0,0,0,1.67-.807C62.954,18.972,61.394,9.09,56.312,5.489Zm23.22,17.4-.363-.294c-1.715,1.067-3.457,2.093-5.124,3.231a2.519,2.519,0,0,0-.759,1.391,46.041,46.041,0,0,1-1.308,5.231c-.726,1.831-.1,3.037,1.175,4.166a5.373,5.373,0,0,0,4.852,1.416,4.336,4.336,0,0,0,2.273-1.635,56.318,56.318,0,0,0,3.01-4.888c.271-.463.657-1.047.573-1.5-.379-2.023-.908-4.017-1.383-6.022l-.44-.086c-.519,1.21-1.022,2.427-1.561,3.628-.421.94-.665,2.366-2.125,1.8s-.7-1.757-.315-2.733C78.53,25.356,79.033,24.122,79.532,22.886ZM78.378,40.9a10.571,10.571,0,0,1-8.235-3.455c-.954,2.285-1.8,4.245-2.573,6.23a1.257,1.257,0,0,0,.123,1.073c2.006,2.312,4.06,4.582,6.2,6.974ZM24.835,13.181c-.66,4.5-.311,5.676,1.985,6.555a4.481,4.481,0,0,0,5.387-1.652c1.251-1.754.691-3.809-1.608-6.329Zm24.553,28.27c2.331-.246,4.564-.452,6.785-.751a1.267,1.267,0,0,0,.861-.814,35.858,35.858,0,0,0,.406-4.205c.012-.312-.414-.913-.652-.92-2.4-.069-4.794-.042-7.4-.042Zm4.921-9.465v.063H55.5c2.3,0,2.3,0,2.3-2.365a6.644,6.644,0,0,1,0-.677c.11-1.095-.418-1.516-1.473-1.55-1.579-.051-3.16-.144-4.732-.3-1.015-.1-1.35.316-1.532,1.281-.574,3.046-.348,3.395,2.729,3.542C53.292,32.008,53.8,31.987,54.309,31.987ZM25.9,2.762l-.778.246c-.1,2.107-.283,4.219-.2,6.319.012.3,1.38.895,1.977.752.783-.187,2.1-1.265,2.021-1.452C28.042,6.614,26.938,4.7,25.9,2.762Z" transform="translate(0 16.52) rotate(-11)" fill="#fff" fill-rule="evenodd"/>
    <path id="Caminho_171" data-name="Caminho 171" d="M8.977,0A8.219,8.219,0,0,1,14.51,2.479a2.048,2.048,0,0,0,2.338.666,7.015,7.015,0,0,1,7.913,3.183c.454.781.83,1.632-.161,2.213-.906.532-1.522.006-2.085-.8C20.9,5.422,18.8,4.884,16.335,6.208c-1.283.69-2.021.408-2.794-.765A5.733,5.733,0,0,0,6.015,3.17a5.852,5.852,0,0,0-3.124,7.1c.268,1.016.527,2.039-.745,2.352S.568,11.769.314,10.855A8.645,8.645,0,0,1,8.977,0Z" transform="translate(47.018 72.508) rotate(-11)" fill="#fff" fill-rule="evenodd"/>
    <path id="Caminho_172" data-name="Caminho 172" d="M8.427,0,9.59,1.182c-.536.466-1.018,1.245-1.616,1.345a6.753,6.753,0,0,0-5.551,4.4c-.236.577-1.077.908-1.641,1.353C.508,7.574-.1,6.8.015,6.168.626,2.912,4.5-.047,8.427,0Z" transform="translate(53.356 53.598) rotate(-11)" fill="#fff" fill-rule="evenodd"/>
    <path id="Caminho_173" data-name="Caminho 173" d="M0,6.856C.105,3.679,2.3.723,4.825.029,5.4-.129,6.164.4,6.841.613c-.307.58-.47,1.449-.948,1.688A6.068,6.068,0,0,0,2.572,6.528c-.158.612-.883,1.078-1.348,1.611Z" transform="translate(30.919 68.479) rotate(-11)" fill="#fff" fill-rule="evenodd"/>
    <path id="Caminho_174" data-name="Caminho 174" d="M4.452,3.306c-.719,1.86-1.345,3.765-2.221,5.547-.224.454-1.238.518-1.889.762C.238,8.934-.18,8.074.088,7.6A10.611,10.611,0,0,0,1.437,1.931C1.423,1.276,2.013.144,2.5.038c1.149-.25,1.42.78,1.474,1.757.025.451.058.9.087,1.351Z" transform="translate(56.515 18.528) rotate(-11)" fill="#fff" fill-rule="evenodd"/>
  </g>
</svg>
