<svg xmlns="http://www.w3.org/2000/svg" width="148.657" height="147.564" viewBox="0 0 148.657 147.564">
  <g id="astronauta" transform="translate(0 0)" opacity="0.9">
    <path id="Caminho_109" data-name="Caminho 109" d="M360.04,340.779c-2.714,1.059-5.242,2.508-7.943,2.987-3.819.677-6.926-1.138-8.587-4.645-1.6-3.371-1.572-6.971,1.02-9.855,9.686-10.776,21.2-18.5,35.765-21.153a14.441,14.441,0,0,0,6.384-3.232c3.321-2.826,6.237-6.124,9.356-9.191,3.821-3.759,8.209-4.819,13.426-3.206a5.788,5.788,0,0,0,4.559-.854c11.92-9.247,26.991-8.7,37.106,1.529,9.849,9.961,10.3,25.356,1.279,36.9-.947,1.212-.986,3.255-1.135,4.94-.237,2.679.242,5.5-.432,8.037-.593,2.229-.631,3.753,1.161,5.271,9.225,7.817,8.57,12.918-.2,20.753-3.256,2.91-6.2,6.168-9.293,9.26-2.177,2.177-2.373,4.351-.6,7.015,3.5,5.24,3.074,8.4-1.324,12.957-.954.988-1.949,1.939-2.9,2.934-3.289,3.45-3.306,5-.132,8.606.494.563,1.241,1.085,1.376,1.73a3.624,3.624,0,0,1-.348,2.61,2.377,2.377,0,0,1-2.278.122c-5.809-3.843-6.9-9.9-3.2-14.407,1.5-1.826,3.269-3.44,4.942-5.124,2.064-2.076,2.253-4.185.633-6.716-3.6-5.623-3.177-8.729,1.6-13.565,3.953-4,7.987-7.92,11.9-11.959,2.994-3.089,3.008-4.9-.061-7.984-6.673-6.712-4.708-6.022-10.969-.3a19.5,19.5,0,0,0-6.337,11.4c-2.483,12.989-9.78,23.363-19.211,32.332-4.029,3.831-9.191,4.173-12.86,1.031-3.825-3.275-4.15-8.473-.824-13.116.43-.6.833-1.217,1.234-1.8-4.394-4.655-5.191-4.685-9.46-.419-5.3,5.3-10.581,10.628-15.919,15.895-1.447,1.428-2.057,2.679-1.343,4.911,1.6,5-1.461,11.247-6.412,13.371a4.113,4.113,0,0,1-3.58-.822c-4.984-4.731-9.774-9.663-14.653-14.506-2.127-2.112-1.02-3.717.656-5.383q9.975-9.909,19.88-19.887c.876-.88,2-1.761,2.342-2.851a3.815,3.815,0,0,0-.611-3.309c-.653-.6-2.333-.6-3.311-.216a9.63,9.63,0,0,0-2.816,2.41c-6.376,6.35-12.72,12.731-19.1,19.073-3.179,3.158-3.978,3.18-7.063.139-4.36-4.3-8.628-8.693-13.009-12.969-2.043-1.995-2.015-3.711-.015-5.74,3.03-3.075,5.952-6.014,10.878-5.589,1.184.1,2.717-1.057,3.712-2.024,5.557-5.4,11-10.916,16.476-16.4C364.11,345.463,364.107,345.46,360.04,340.779Zm68.7-.408a25.3,25.3,0,0,0-3.694-2.129c-9.792-3.533-16.64-9.938-19.518-20.1-.871-3.079-2.527-3.36-4.969-2.078a11.5,11.5,0,0,0-2.774,1.874c-8.6,8.526-17.145,17.109-25.743,25.638-1.412,1.4-1.675,2.544-.135,4.071q11.976,11.86,23.837,23.836c1.458,1.47,2.6,1.5,4.07.018,8.608-8.694,17.3-17.3,25.867-26.04C426.855,344.265,427.473,342.532,428.745,340.371Zm-33.988,37.115c-9.856-9.852-18.9-18.895-28.018-28.007a2.418,2.418,0,0,0-.816.4q-7.207,7.088-14.379,14.211c-7.756,7.727-7.713,7.7.588,14.936,1.587,1.385,2.661,1.376,4.08-.085,3.218-3.311,6.507-6.555,9.8-9.791,3.922-3.849,8.445-4.254,11.5-1.082,3.18,3.3,2.821,7.1-1.153,11.184-3.22,3.309-6.47,6.593-9.792,9.8-1.6,1.544-1.639,2.78-.026,4.369,6.983,6.878,4.976,6.036,10.955.385.726-.686,1.4-1.429,2.124-2.113C384.7,386.92,389.783,382.154,394.757,377.486Zm59.766-65.346a22.672,22.672,0,0,0-22.863-22.815A22.927,22.927,0,0,0,409,312.074c0,11.829,11.448,23.218,23.208,23.08A22.745,22.745,0,0,0,454.523,312.14Zm-23.846,35.982-1.4-.461c-2.409,3.013-6.7,5.919-6.881,9.059-.58,10.18-5.368,17.993-11.408,25.427-1.576,1.94-1.739,3.4.241,5.017a19.276,19.276,0,0,1,2.386,2.369c1.516,1.769,2.792,1.548,4.259-.148,8.688-10.048,13.969-21.468,13.99-34.944C431.863,352.335,431.09,350.228,430.677,348.122ZM396.194,313.07c-2.933-.611-4.928-1.391-6.921-1.383-13.615.056-25.2,5.315-35.232,14.259a3.233,3.233,0,0,0-.948,2.758c1.967,4.73,5.893,5.612,9.974,2.535,6.005-4.528,12.161-9.348,19.971-9.387C389.476,321.819,391.876,317.376,396.194,313.07Zm-50.268,76.894c1.455-2.464,4.385-5.9,3.794-6.686a56.053,56.053,0,0,0-10.247-10.191c-2.34-1.836-4.639.242-5.868,2.252-.494.809.218,2.926,1.043,3.865,2.626,2.986,5.55,5.709,8.389,8.5C343.642,388.3,344.378,388.765,345.926,389.964Zm27.363,17.873a20.6,20.6,0,0,0-2.085-3.6c-2.538-2.719-5.273-5.255-7.824-7.964-2.408-2.558-3.637-.217-5.1,1.107-1.521,1.381-3.012,2.734-.763,4.851,2.89,2.721,5.55,5.687,8.477,8.365.95.87,2.953,1.966,3.557,1.567C371.061,411.171,372.042,409.378,373.289,407.837Zm18.54-100.969c2.669,1.285,5.24,2.918,8.048,3.707,1.4.393,4.277-.319,4.686-1.289,1.619-3.837,2.526-7.974,3.692-11.983C403.871,293.317,398.128,298.347,391.829,306.868Zm54.653,29.089c-4.061,1.127-8.18,2.057-12.1,3.518-.942.352-2,2.733-1.663,3.734a70.8,70.8,0,0,0,4.058,8.59C445.315,346.527,448.91,340.58,446.482,335.957Zm-28.944,25.29-16.112,15.411c2.011,2.067,4.506,4.04,6.786,1.726A33.635,33.635,0,0,0,417.538,361.247Zm-35.19-35.064c-2.065.507-3.468.564-4.565,1.172a126.948,126.948,0,0,0-11.159,6.668c-3.53,2.462-3.217,5.083.472,7.755Zm27.114,70.562c.444-.381,1.46-1.249,2.476-2.118l-5.967-5.9c-.712,1.045-1.86,2.017-2.047,3.149C403.505,394.414,405.8,396.655,409.462,396.745ZM352.38,339.713l2.464-2.17-5.968-5.915c-.694,1.056-1.823,2.046-1.994,3.179C346.492,337.4,348.747,339.628,352.38,339.713Z" transform="translate(-327.237 -270.416)" fill="#fff" fill-rule="evenodd"/>
    <path id="Caminho_110" data-name="Caminho 110" d="M462.03,414.438c-.156-1.75-.8-3.4-.266-4,1.9-2.123,2.287-3.83.055-5.949-.45-.427-.048-1.753-.038-2.664,1.01.016,2.43-.389,2.957.123,1.911,1.861,3.4,1.929,5.359.036.588-.566,2.155-.119,3.274-.136-.144,1.005.069,2.343-.5,2.952-1.627,1.744-2.071,3.087-.186,5.021.661.679.349,2.3.482,3.5-1.11-.177-2.606.036-3.257-.607-1.856-1.833-3.3-1.75-4.977.1C464.473,413.322,463.684,413.535,462.03,414.438Z" transform="translate(-327.237 -270.416)" fill="#fff" fill-rule="evenodd"/>
    <path id="Caminho_111" data-name="Caminho 111" d="M475.4,288.67c-1.476-.567-2.065-.617-2.366-.938-1.975-2.1-3.813-2.306-5.988-.142-.485.483-1.953-.023-2.968-.074.087-.913-.178-2.178.322-2.678,1.966-1.969,2.181-3.612.068-5.655-.541-.523-.213-1.943-.285-2.951,1,0,2.468-.43,2.932.07,2.128,2.291,3.858,2.041,5.9-.078.454-.471,1.749-.131,2.657-.164.022,1.007.483,2.459-.01,2.947-2.159,2.141-1.969,3.855.033,5.993C476.211,285.544,475.56,287.175,475.4,288.67Z" transform="translate(-327.237 -270.416)" fill="#fff" fill-rule="evenodd"/>
    <path id="Caminho_112" data-name="Caminho 112" d="M349.676,293.776a17.035,17.035,0,0,1,3.145-2.209,2.991,2.991,0,0,1,2.631.156,2.571,2.571,0,0,1,.019,2.555c-1.991,2.033-2.484,3.761-.124,5.918.521.476.13,1.949.159,2.962-1-.038-2.39.329-2.918-.188-1.945-1.9-3.543-2.4-5.6-.135-.5.554-1.919.276-2.916.381.006-1.029-.423-2.464.093-3.014,1.907-2.037,2.054-3.678.007-5.722-.485-.487,0-1.946.041-2.958a8.5,8.5,0,0,1,2.727.237A14.916,14.916,0,0,1,349.676,293.776Z" transform="translate(-327.237 -270.416)" fill="#fff" fill-rule="evenodd"/>
    <path id="Caminho_113" data-name="Caminho 113" d="M334.378,349.739c-1.148.866-1.812,1.721-2.569,1.814-.5.061-1.7-1.135-1.6-1.48a3.048,3.048,0,0,1,1.7-1.858C332.382,348.065,333.186,348.961,334.378,349.739Z" transform="translate(-327.237 -270.416)" fill="#fff" fill-rule="evenodd"/>
    <path id="Caminho_114" data-name="Caminho 114" d="M334.256,273.071c.837,1.178,1.691,1.867,1.728,2.6.029.558-.979,1.168-1.526,1.755-.652-.621-1.59-1.144-1.848-1.9C332.461,275.086,333.407,274.275,334.256,273.071Z" transform="translate(-327.237 -270.416)" fill="#fff" fill-rule="evenodd"/>
    <path id="Caminho_115" data-name="Caminho 115" d="M472.545,377.628c-1.092.968-1.746,1.964-2.242,1.891-.763-.112-1.417-.958-2.118-1.493.505-.628.97-1.721,1.524-1.769C470.443,376.194,471.247,376.95,472.545,377.628Z" transform="translate(-327.237 -270.416)" fill="#fff" fill-rule="evenodd"/>
    <path id="Caminho_116" data-name="Caminho 116" d="M372.57,270.416c.877,1.119,1.823,1.835,1.712,2.3a3.029,3.029,0,0,1-1.683,1.829c-.339.13-1.62-.936-1.6-1.428C371.024,272.363,371.806,271.637,372.57,270.416Z" transform="translate(-327.237 -270.416)" fill="#fff" fill-rule="evenodd"/>
    <path id="Caminho_117" data-name="Caminho 117" d="M474.865,311.4c-1.006.81-1.612,1.681-2.2,1.668-.626-.015-1.234-.862-1.85-1.346.568-.65,1.034-1.593,1.742-1.839C472.99,309.735,473.794,310.66,474.865,311.4Z" transform="translate(-327.237 -270.416)" fill="#fff" fill-rule="evenodd"/>
    <path id="Caminho_118" data-name="Caminho 118" d="M413.081,281.284c-.66.4-1.382,1.178-1.965,1.085-.605-.1-1.076-1.038-1.605-1.611.661-.568,1.258-1.464,2-1.612.706-.142,1.568.5,2.362.8Q413.479,280.614,413.081,281.284Z" transform="translate(-327.237 -270.416)" fill="#fff" fill-rule="evenodd"/>
    <path id="Caminho_119" data-name="Caminho 119" d="M411.037,411.281c.793,1.14,1.613,1.8,1.571,2.4-.044.63-.913,1.2-1.422,1.8-.55-.556-1.468-1.065-1.547-1.681S410.329,412.473,411.037,411.281Z" transform="translate(-327.237 -270.416)" fill="#fff" fill-rule="evenodd"/>
    <path id="Caminho_120" data-name="Caminho 120" d="M418.039,344.232a29.413,29.413,0,0,1-2.13,2.745c-4.465,4.521-9.03,8.945-13.441,13.517-2.137,2.214-3.871,2.1-5.956-.064q-6.621-6.854-13.476-13.481c-2.045-1.983-2.118-3.666-.059-5.675,4.637-4.524,9.2-9.121,13.75-13.736,1.8-1.828,3.479-2.182,5.426-.208,4.723,4.791,9.519,9.511,14.235,14.309A15.094,15.094,0,0,1,418.039,344.232Zm-5.87-.148a8.079,8.079,0,0,0-.866-1.4c-3.419-3.462-6.791-6.977-10.371-10.264a3.22,3.22,0,0,0-3.1.246c-3.315,3.023-6.387,6.311-9.613,9.436-1.54,1.491-1.308,2.694.129,4.085,3.047,2.951,6.062,5.938,9,9,1.552,1.619,2.81,1.623,4.364,0,2.929-3.068,5.994-6.005,8.963-9.035A16.6,16.6,0,0,0,412.169,344.084Z" transform="translate(-327.237 -270.416)" fill="#fff" fill-rule="evenodd"/>
    <path id="Caminho_121" data-name="Caminho 121" d="M432.111,293.81a18.279,18.279,0,0,1-.141,36.558c-8.561-.048-18.577-10.088-18.5-18.538A18.251,18.251,0,0,1,432.111,293.81Zm-14.166,17.546c-.162,6.393,7.551,14.663,13.857,14.858a14.113,14.113,0,0,0,.7-28.217C424.541,297.787,418.14,303.661,417.945,311.356Z" transform="translate(-327.237 -270.416)" fill="#fff" fill-rule="evenodd"/>
    <path id="Caminho_122" data-name="Caminho 122" d="M400.406,336.334c2.081,2.48,4.612,4.727,6.063,7.532.783,1.514-1.345,2.683-2.864,1.516a29.451,29.451,0,0,1-5.429-5.522c-.444-.583.4-2.141.647-3.251Z" transform="translate(-327.237 -270.416)" fill="#fff" fill-rule="evenodd"/>
    <path id="Caminho_123" data-name="Caminho 123" d="M398.558,351.711c-2.076-2.477-4.594-4.724-6.044-7.525-.761-1.469,1.336-2.686,2.876-1.495a30.3,30.3,0,0,1,5.432,5.514c.437.571-.389,2.112-.636,3.209Z" transform="translate(-327.237 -270.416)" fill="#fff" fill-rule="evenodd"/>
    <path id="Caminho_124" data-name="Caminho 124" d="M428.973,312.228a16.8,16.8,0,0,1-4.074-.085c-.869-.224-1.529-1.255-2.282-1.924.786-.649,1.528-1.78,2.366-1.856a47.333,47.333,0,0,1,8.179-.024c.868.074,1.653,1.159,2.476,1.782-.856.713-1.613,1.775-2.592,2.051a15.42,15.42,0,0,1-4.072.088Z" transform="translate(-327.237 -270.416)" fill="#fff" fill-rule="evenodd"/>
    <path id="Caminho_125" data-name="Caminho 125" d="M432.558,321.388a10.2,10.2,0,0,1-2.917-.328,1.831,1.831,0,0,1-.026-3.574,4.666,4.666,0,0,1,2.9-.206,37.28,37.28,0,0,1,4.541,2L433.009,322C432.858,321.8,432.708,321.593,432.558,321.388Z" transform="translate(-327.237 -270.416)" fill="#fff" fill-rule="evenodd"/>
  </g>
</svg>
