<svg xmlns="http://www.w3.org/2000/svg" width="57" height="57" viewBox="0 0 57 57">
  <g id="circulo" fill="none">
    <path d="M28.5,0A28.5,28.5,0,1,0,57,28.5,28.5,28.5,0,0,0,28.5,0Z" stroke="none"/>
    <path d="M 28.5 4.000003814697266 C 25.19075584411621 4.000003814697266 21.98262405395508 4.647224426269531 18.9647216796875 5.923690795898438 C 16.04775619506836 7.157459259033203 13.42721176147461 8.924560546875 11.17587661743164 11.17588043212891 C 8.924556732177734 13.42721557617188 7.157455444335938 16.04774856567383 5.923690795898438 18.96471405029297 C 4.647220611572266 21.98262405395508 4 25.19074821472168 4 28.49999237060547 C 4 31.80923652648926 4.647220611572266 35.01735687255859 5.923690795898438 38.03527069091797 C 7.157455444335938 40.95223617553711 8.924556732177734 43.57276916503906 11.17587661743164 45.82410430908203 C 13.42721176147461 48.07542419433594 16.04775619506836 49.84252548217773 18.9647216796875 51.0762939453125 C 21.98262405395508 52.35276031494141 25.19075584411621 52.99998092651367 28.5 52.99998092651367 C 31.80924415588379 52.99998092651367 35.01736450195313 52.35276031494141 38.0352783203125 51.0762939453125 C 40.95224380493164 49.84252548217773 43.57278823852539 48.07542419433594 45.82411193847656 45.82410430908203 C 48.07544326782227 43.57276916503906 49.84253311157227 40.95222473144531 51.07630920410156 38.03527069091797 C 52.35277938842773 35.01735687255859 53 31.80923652648926 53 28.49999237060547 C 53 25.19074821472168 52.35277938842773 21.98262405395508 51.07630920410156 18.96471405029297 C 49.84253311157227 16.04776000976563 48.07544326782227 13.42721557617188 45.82411193847656 11.17588043212891 C 43.57278823852539 8.924560546875 40.95224380493164 7.157459259033203 38.0352783203125 5.923690795898438 C 35.01736450195313 4.647224426269531 31.80924415588379 4.000003814697266 28.5 4.000003814697266 M 28.5 3.814697265625e-06 C 44.2401123046875 3.814697265625e-06 57 12.75988006591797 57 28.49999237060547 C 57 44.24010467529297 44.2401123046875 56.99998092651367 28.5 56.99998092651367 C 12.7598762512207 56.99998092651367 0 44.24010467529297 0 28.49999237060547 C 0 12.75988006591797 12.7598762512207 3.814697265625e-06 28.5 3.814697265625e-06 Z" stroke="none" fill="#fff"/>
  </g>
</svg>
