<svg xmlns="http://www.w3.org/2000/svg" width="108.087" height="108.087" viewBox="0 0 108.087 108.087">
  <g id="engrenagem" transform="translate(0)" opacity="0.85">
    <path id="Caminho_128" data-name="Caminho 128" d="M594.15,264.75h-49.4v49.4a6.858,6.858,0,0,0,.352-1.2A52.892,52.892,0,0,1,555.444,286.6a2.446,2.446,0,0,0,.178-2.837,8.861,8.861,0,1,1,5.571,5.031,2.15,2.15,0,0,0-2.91.955c-19.631,27.161-6.809,66.175,25.134,76.415a49.673,49.673,0,0,0,24.354,1.636c1.452-.262,2.992-.328,3.264,1.625.264,1.893-1.146,2.32-2.643,2.56-1.654.266-3.3.569-4.954.856h49.4v-49.4a7,7,0,0,0-.349,1.2,52.921,52.921,0,0,1-10.342,26.348,2.438,2.438,0,0,0-.189,2.833,8.7,8.7,0,0,1-3.071,10.645A8.849,8.849,0,0,1,626.1,352.888a8.542,8.542,0,0,1,10.276-4.079c1.6.55,2.221,0,3.03-1.141a49.862,49.862,0,0,0-21.647-74.926,49.142,49.142,0,0,0-27.9-2.958c-1.423.255-3.01.446-3.367-1.486-.372-2.016,1.137-2.444,2.7-2.7C590.848,265.339,592.5,265.037,594.15,264.75Zm21.673,24.983c.69-.778,1.482-1.767,2.378-2.655a2.033,2.033,0,0,1,3.167-.006q4.573,4.531,9.107,9.1c1.015,1.022,1.165,2.347.013,3.13-2.909,1.978-2.562,4.176-.874,6.661a2.372,2.372,0,0,1,.385.976c.353,2.53,1.683,3.438,4.283,3.157,2.2-.239,2.912.651,2.926,2.834.025,3.939-.025,7.88.021,11.82.022,1.868-.864,2.724-2.663,2.762a11.27,11.27,0,0,0-2.312.052,2.355,2.355,0,0,0-1.493,1.008c-1,2.232-1.856,4.532-2.987,7.371.7.557,1.672,1.254,2.549,2.06a2.144,2.144,0,0,1,.091,3.477q-4.472,4.484-8.954,8.955c-.925.922-2.25,1.283-2.963.218-2.225-3.321-4.725-2.429-7.416-.873a3.891,3.891,0,0,1-1.366.538c-1.823.247-2.477,1.269-2.185,3.025a7.007,7.007,0,0,1,.007,1.055c.019,1.894-.832,2.852-2.812,2.829-4.01-.046-8.021-.03-12.031-.007-1.629.01-2.826-.81-2.558-2.351.586-3.369-1.121-4.652-3.992-5.215a2,2,0,0,1-.766-.342c-2.227-1.616-4.072-1.482-5.767.9-.981,1.381-2.358,1.365-3.612.105q-4.393-4.412-8.8-8.81a2.168,2.168,0,0,1,.039-3.489c.866-.819,1.828-1.538,2.643-2.214a33.71,33.71,0,0,1-2.252-5.247c-.584-2.487-1.8-3.467-4.37-3.087-1.54.229-2.851-.414-2.868-2.272-.039-4.291-.027-8.583,0-12.875a2.137,2.137,0,0,1,2.26-2.268c.91-.066,1.844.075,2.737-.066a2.011,2.011,0,0,0,1.382-.852c1.016-2.3,1.9-4.661,3.026-7.489-.673-.548-1.579-1.221-2.41-1.976-1.36-1.236-1.334-2.5-.011-3.8,2.907-2.864,5.784-5.757,8.667-8.645,1.159-1.161,2.348-1.218,3.483-.028.823.863,1.55,1.816,2.254,2.65a32.044,32.044,0,0,1,5.2-2.228c2.492-.568,3.492-1.775,3.116-4.345-.226-1.544.4-2.864,2.253-2.884,4.291-.047,8.583-.027,12.875-.01a2.14,2.14,0,0,1,2.288,2.242c.072.909-.071,1.843.072,2.736a2.015,2.015,0,0,0,.852,1.386C610.733,287.765,613.094,288.649,615.823,289.733Zm2.43,80.195c-1.006-1.27-2.12-2.074-2.031-2.711.117-.842,1.175-1.555,1.828-2.322.733.7,1.871,1.313,2.063,2.141C620.256,367.658,619.184,368.562,618.253,369.928Zm-39.39-101.671.919-.05c.555.816,1.57,1.656,1.531,2.444-.035.718-1.212,1.382-1.886,2.07-.717-.712-1.844-1.335-2.021-2.163C577.27,269.924,578.333,269.033,578.863,268.257Z" transform="translate(-544.75 -264.75)" fill="none" fill-rule="evenodd"/>
    <path id="Caminho_129" data-name="Caminho 129" d="M677.627,378.089c1.651-.287,3.3-.591,4.954-.856,1.5-.24,2.907-.667,2.643-2.56-.272-1.953-1.812-1.887-3.264-1.625a49.673,49.673,0,0,1-24.354-1.636c-31.943-10.24-44.765-49.254-25.134-76.415a2.15,2.15,0,0,1,2.91-.955,8.644,8.644,0,0,0,10.293-4.084,8.845,8.845,0,1,0-15.864-.947,2.446,2.446,0,0,1-.178,2.837A52.892,52.892,0,0,0,619.291,318.2a6.86,6.86,0,0,1-.352,1.2v9.288a13.423,13.423,0,0,1,.385,1.622,53.819,53.819,0,0,0,39.167,45.752c3.225.884,6.562,1.36,9.847,2.026Zm-39.672-87.831a4.628,4.628,0,1,1,4.619-4.733A4.657,4.657,0,0,1,637.955,290.257Z" transform="translate(-618.939 -270.002)" fill="#fff" fill-rule="evenodd"/>
    <path id="Caminho_130" data-name="Caminho 130" d="M552.468,264.75c-1.652.287-3.3.589-4.956.855-1.568.252-3.077.679-2.7,2.7.357,1.932,1.945,1.741,3.367,1.486a49.142,49.142,0,0,1,27.9,2.958,49.862,49.862,0,0,1,21.647,74.926c-.809,1.137-1.426,1.69-3.03,1.141a8.542,8.542,0,0,0-10.276,4.079,8.849,8.849,0,0,0,12.786,11.577,8.7,8.7,0,0,0,3.071-10.645,2.438,2.438,0,0,1,.189-2.833,52.921,52.921,0,0,0,10.342-26.348,7,7,0,0,1,.349-1.2v-9.288a17.3,17.3,0,0,1-.4-1.822,54.007,54.007,0,0,0-40.361-45.9c-2.844-.7-5.759-1.125-8.641-1.677Zm39.854,97.087a4.632,4.632,0,1,1,4.451-4.915A4.668,4.668,0,0,1,592.322,361.837Z" transform="translate(-503.069 -264.75)" fill="#fff" fill-rule="evenodd"/>
    <path id="Caminho_131" data-name="Caminho 131" d="M544.75,264.75c2.882.552,5.8.973,8.641,1.677a54.007,54.007,0,0,1,40.361,45.9,17.3,17.3,0,0,0,.4,1.822v-49.4Z" transform="translate(-486.062 -264.75)" fill="none" fill-rule="evenodd"/>
    <path id="Caminho_132" data-name="Caminho 132" d="M698.386,418.386c-3.285-.665-6.622-1.142-9.847-2.026a53.819,53.819,0,0,1-39.167-45.752,13.422,13.422,0,0,0-.385-1.622v49.4Z" transform="translate(-648.986 -310.299)" fill="none" fill-rule="evenodd"/>
    <path id="Caminho_133" data-name="Caminho 133" d="M627.928,301.852c-2.729-1.084-5.09-1.968-7.392-2.984a2.015,2.015,0,0,1-.852-1.386c-.143-.893,0-1.827-.071-2.736a2.14,2.14,0,0,0-2.288-2.243c-4.291-.017-8.583-.038-12.875.01-1.853.021-2.479,1.34-2.253,2.884.376,2.571-.624,3.778-3.116,4.345a32.046,32.046,0,0,0-5.2,2.228c-.7-.834-1.431-1.788-2.254-2.65-1.136-1.19-2.324-1.133-3.483.028-2.883,2.888-5.76,5.782-8.667,8.645-1.323,1.3-1.348,2.563.011,3.8.83.756,1.737,1.428,2.41,1.976-1.124,2.828-2.01,5.187-3.026,7.489a2.011,2.011,0,0,1-1.382.852c-.893.141-1.826,0-2.737.066a2.137,2.137,0,0,0-2.26,2.268c-.024,4.292-.036,8.584,0,12.875.017,1.858,1.328,2.5,2.868,2.272,2.566-.38,3.786.6,4.37,3.087a33.7,33.7,0,0,0,2.252,5.247c-.815.677-1.776,1.4-2.643,2.214a2.168,2.168,0,0,0-.039,3.489q4.4,4.408,8.8,8.81c1.254,1.259,2.63,1.275,3.612-.105,1.695-2.385,3.54-2.52,5.767-.9a2,2,0,0,0,.766.342c2.871.562,4.577,1.846,3.992,5.215-.268,1.54.929,2.36,2.558,2.351,4.01-.023,8.021-.039,12.031.007,1.981.023,2.831-.935,2.812-2.829a7,7,0,0,0-.007-1.055c-.292-1.756.362-2.778,2.185-3.025a3.892,3.892,0,0,0,1.366-.538c2.691-1.556,5.191-2.447,7.416.873.713,1.065,2.038.7,2.963-.218q4.485-4.47,8.954-8.955a2.144,2.144,0,0,0-.091-3.477c-.877-.805-1.852-1.5-2.549-2.06,1.131-2.838,1.984-5.138,2.987-7.371a2.355,2.355,0,0,1,1.493-1.008,11.273,11.273,0,0,1,2.312-.052c1.8-.037,2.685-.894,2.663-2.762-.046-3.939,0-7.88-.021-11.82-.014-2.183-.729-3.073-2.926-2.834-2.6.282-3.93-.627-4.283-3.157a2.373,2.373,0,0,0-.385-.976c-1.688-2.485-2.035-4.682.874-6.661,1.151-.783,1-2.108-.013-3.13q-4.536-4.567-9.107-9.1a2.033,2.033,0,0,0-3.167.006C629.411,300.085,628.618,301.075,627.928,301.852Zm-12.585-5.034c.033.736.068,1.223.074,1.709.044,3.366.057,3.32,3.31,4.317a19.7,19.7,0,0,1,4.886,1.9c3.1,1.983,5.865,2.922,7.9-.933l6.377,6.38a10.335,10.335,0,0,1-1.172,1.209c-1.868,1.45-1.85,2.973-.636,4.929a28.323,28.323,0,0,1,2.526,5.54c1.5,4.263,1.443,4.282,5.937,4.568.123.007.239.122.453.237v8.643a15.17,15.17,0,0,1-2.15.084c-2.219-.231-3.312.7-3.808,2.914a27.5,27.5,0,0,1-2.125,5.706c-2.01,4.224-2.064,4.2.991,7.589.076.084.06.252.006-.005l-6.159,6.4c-.408-.381-.876-.8-1.32-1.234-2.191-2.154-2.242-2.067-5.073-.621a44.709,44.709,0,0,1-6.587,2.724c-3.231,1.043-3.306,1-3.357,4.319-.01.607-.084,1.213-.125,1.771h-8.913a18.611,18.611,0,0,1,.011-2.005c.263-2.293-.644-3.492-3-3.948a15.516,15.516,0,0,1-5.1-1.915c-3.126-1.927-5.964-3.046-8.057.886l-6.439-6.557c.3-.248.767-.673,1.27-1.055,1.875-1.424,1.911-2.946.655-4.912a15.652,15.652,0,0,1-2.387-5.349c-.658-3.577-2.3-5.395-6.079-4.763-.108.019-.242-.116-.377-.186v-8.788c.668,0,1.156,0,1.642,0,3.384-.035,3.329-.053,4.327-3.295a38.859,38.859,0,0,1,2.028-5.3c2.008-4.2,2.053-4.178-.953-7.6-.074-.084-.047-.256-.018-.066l6.211-6.291a11.744,11.744,0,0,1,1.265,1.224c1.436,1.829,2.95,1.948,4.921.685a14.924,14.924,0,0,1,5.149-2.322c3.706-.669,5.658-2.372,5.041-6.32-.008-.046.082-.108.212-.266Z" transform="translate(-556.856 -276.869)" fill="#fff" fill-rule="evenodd"/>
    <path id="Caminho_134" data-name="Caminho 134" d="M604.886,447.653c.931-1.365,2-2.27,1.86-2.892-.192-.828-1.33-1.438-2.063-2.141-.653.767-1.712,1.48-1.828,2.322C602.766,445.579,603.88,446.383,604.886,447.653Z" transform="translate(-531.384 -342.475)" fill="#fff" fill-rule="evenodd"/>
    <path id="Caminho_135" data-name="Caminho 135" d="M673.252,270.94c-.53.776-1.593,1.667-1.457,2.3.177.828,1.3,1.451,2.021,2.163.675-.688,1.851-1.351,1.886-2.07.039-.788-.976-1.628-1.531-2.444Z" transform="translate(-639.139 -267.433)" fill="#fff" fill-rule="evenodd"/>
    <path id="Caminho_136" data-name="Caminho 136" d="M699.383,293.542a4.628,4.628,0,1,0-4.635-4.516A4.638,4.638,0,0,0,699.383,293.542Z" transform="translate(-680.367 -273.287)" fill="none" fill-rule="evenodd"/>
    <path id="Caminho_137" data-name="Caminho 137" d="M575.082,430a4.632,4.632,0,1,0-4.794-4.352A4.7,4.7,0,0,0,575.082,430Z" transform="translate(-485.829 -332.915)" fill="none" fill-rule="evenodd"/>
    <path id="Caminho_138" data-name="Caminho 138" d="M618.639,300.182H610c-.129.158-.22.22-.212.266.617,3.948-1.335,5.652-5.041,6.32a14.925,14.925,0,0,0-5.149,2.322c-1.971,1.263-3.485,1.144-4.921-.685a11.746,11.746,0,0,0-1.265-1.224l-6.211,6.291c-.029-.19-.056-.018.018.066,3.007,3.425,2.961,3.4.953,7.6a38.858,38.858,0,0,0-2.028,5.3c-1,3.242-.943,3.259-4.327,3.295-.486.005-.974,0-1.642,0v8.788c.136.07.269.2.377.186,3.777-.632,5.422,1.185,6.079,4.763a15.652,15.652,0,0,0,2.387,5.349c1.255,1.966,1.219,3.487-.655,4.912-.5.382-.973.806-1.27,1.055l6.439,6.557c2.093-3.932,4.93-2.812,8.057-.886a15.517,15.517,0,0,0,5.1,1.915c2.351.455,3.259,1.655,3,3.948a18.611,18.611,0,0,0-.011,2.005h8.913c.041-.558.115-1.164.125-1.771.052-3.316.127-3.276,3.357-4.319a44.709,44.709,0,0,0,6.587-2.724c2.83-1.446,2.882-1.533,5.073.621.445.437.912.853,1.32,1.234l6.159-6.4c.054.257.07.09-.006.005-3.056-3.392-3-3.365-.991-7.589a27.5,27.5,0,0,0,2.125-5.706c.5-2.212,1.588-3.146,3.808-2.914a15.17,15.17,0,0,0,2.15-.084v-8.643c-.213-.115-.329-.23-.453-.237-4.495-.286-4.434-.306-5.937-4.568a28.325,28.325,0,0,0-2.526-5.54c-1.214-1.955-1.232-3.478.636-4.929a10.335,10.335,0,0,0,1.172-1.209l-6.377-6.38c-2.033,3.854-4.8,2.916-7.9.933a19.7,19.7,0,0,0-4.886-1.9c-3.253-1-3.266-.951-3.31-4.317C618.707,301.4,618.672,300.918,618.639,300.182Zm-4.5,16.7a17.39,17.39,0,1,1-17.336,17.5A17.3,17.3,0,0,1,614.14,316.887Z" transform="translate(-560.151 -280.233)" fill="none" fill-rule="evenodd"/>
    <path id="Caminho_139" data-name="Caminho 139" d="M627.183,329.852a17.39,17.39,0,1,0,17.446,17.386A17.3,17.3,0,0,0,627.183,329.852Zm-.011,30.556A13.167,13.167,0,1,1,640.408,347.2,13.078,13.078,0,0,1,627.173,360.408Z" transform="translate(-573.194 -293.198)" fill="#fff" fill-rule="evenodd"/>
    <path id="Caminho_140" data-name="Caminho 140" d="M630.449,363.685a13.167,13.167,0,1,0-13.1-13.13A13.079,13.079,0,0,0,630.449,363.685Z" transform="translate(-576.471 -296.475)" fill="none" fill-rule="evenodd"/>
  </g>
</svg>
