<svg xmlns="http://www.w3.org/2000/svg" width="134.913" height="136.237" viewBox="0 0 134.913 136.237">
  <g id="lego" transform="matrix(-0.996, -0.087, 0.087, -0.996, 123.942, 136.237)" opacity="0.26">
    <g id="Grupo_9" data-name="Grupo 9" transform="translate(0 0)">
      <path id="Caminho_177" data-name="Caminho 177" d="M84.25,90.167c0-5.022.027-10.044-.022-15.066-.013-1.242.212-2.054,1.616-2.314,2.812-.52,4.646-2.352,6.766-4.232,2.319-2.057,5.858-3.156,9.034-3.721,3.72-.661,7.045-1.247,9.724-4.362,1.239-1.439,3.625-1.917,5.522-2.761,9.011-4.006,7.361-1.4,7.474-11.242.1-8.7-.044-17.41.045-26.113a4.175,4.175,0,0,0-2.967-4.534C109.08,10.74,96.8,5.451,84.437.384a6.4,6.4,0,0,0-4.432.024C54.328,11.115,28.707,21.956,3.042,32.695.9,33.593-.009,34.735,0,37.155q.139,33.394.021,66.789c-.009,2.47.71,3.911,3.111,4.675a35.6,35.6,0,0,1,6,2.531,34.936,34.936,0,0,1,5.283,3.519c2.338,1.871,5,2.438,7.885,2.8,4.045.5,7.826,1.592,10.683,5.035a9.416,9.416,0,0,0,5.113,2.841c5.5,1.1,10.483.859,14.652-4.264,1.763-2.167,5.708-2.986,8.814-3.523,3.721-.643,7.1-1.187,9.72-4.366,1.053-1.276,3.168-1.721,4.846-2.431,8.122-3.439,8.128-3.426,8.127-12.3Q84.251,94.31,84.25,90.167ZM80.266,4.749V7.826c0,8.034-.108,16.07.064,24.1.052,2.441-.85,3.464-3,4.36Q42.3,50.91,7.336,65.709c-.9.38-1.832.7-3.113,1.183V63.843c0-8.118.092-16.237-.061-24.351-.042-2.231.748-3.184,2.725-4.01Q40.761,21.336,74.569,7.033C76.309,6.3,78.072,5.627,80.266,4.749Zm-40.217,51.8c.057.986.135,1.714.135,2.443.009,8.779-.044,17.559.048,26.338a3.013,3.013,0,0,1-2.181,3.32c-10.49,4.334-20.932,8.785-31.395,13.187-.665.279-1.372.456-2.279.751-.062-.994-.147-1.726-.147-2.458-.009-8.779.044-17.559-.048-26.337a3.014,3.014,0,0,1,2.208-3.3C16.878,66.155,27.318,61.7,37.78,57.3,38.443,57.02,39.151,56.845,40.049,56.553Zm4.123-.353c3.4,1.542,6.822,2.176,8.818,4.21,2.993,3.051,6.321,3.764,10.2,4.45a19.953,19.953,0,0,1,8.888,3.963c1.883,1.549,3.487,3.363,5.915,3.8,1.956.354,2.317,1.334,2.3,3.086-.068,8.112-.025,16.224-.04,24.337,0,.786-.125,1.572-.207,2.541-.7-.2-1.093-.281-1.458-.435-10.931-4.583-21.848-9.2-32.8-13.735-1.481-.614-1.643-1.61-1.635-2.957.035-6.523.015-13.047.015-19.57ZM84.247,4.913a14.342,14.342,0,0,1,1.684.446C96.8,9.914,107.67,14.448,118.486,19.118a3.425,3.425,0,0,1,1.653,2.555c.123,8.7.079,17.411.064,26.116a17.151,17.151,0,0,1-.258,2.037c-.6-.18-1-.261-1.361-.415C107.642,44.824,96.715,40.2,85.753,35.667c-1.4-.58-1.527-1.492-1.52-2.738.032-5.943.014-11.886.014-17.83ZM47.621,53.28c1.4-.649,2.185-1.038,2.99-1.378,9.845-4.146,19.706-8.254,29.526-12.458a4.882,4.882,0,0,1,4.242-.019c9.049,3.887,18.145,7.668,27.22,11.494,1.572.662,3.123,1.371,5.1,2.244-.958.523-1.436.793-1.923,1.047-2.281,1.192-4.112,1.525-6.741-.2-4.6-3.009-9.8-2.408-14.514.281-3.288,1.875-3.55,4.963-1.017,7.734.273.3.535.611.8.917l-.187.634a8.777,8.777,0,0,1-2.654-.551,15.492,15.492,0,0,0-16.4-.037,14.1,14.1,0,0,1-3.318.752c4.423-5.788,2.989-9.559-3.424-10.979-4.579-1.014-8.97-.827-12.809,2.372a1.9,1.9,0,0,1-1.533.379C51.372,54.949,49.819,54.215,47.621,53.28ZM7.786,106.023c.852-.492,1.241-.777,1.674-.959,10.465-4.416,20.923-8.851,31.426-13.175a4.4,4.4,0,0,1,3.034.145c10.264,4.25,20.494,8.586,30.726,12.917a16.08,16.08,0,0,1,1.817,1.109c-1.027.475-1.717.752-2.366,1.1-1.913,1.036-3.369,1.126-5.574-.22-4.89-2.986-10.24-2.707-15.26.157-2.287,1.305-3.1,3.467-2.226,5.525a28.865,28.865,0,0,0,2.443,3.778,12.423,12.423,0,0,1-3.089-.68,15.5,15.5,0,0,0-16.415.005,9.03,9.03,0,0,1-2.611.58c3.054-4.569,3.059-7.354-.461-9.32-5.024-2.807-10.356-2.959-15.266.058-1.882,1.157-3.174,1.241-4.892.345C9.941,106.974,9.1,106.626,7.786,106.023Zm9.137,5.216c3.327-2.986,10.019-2.866,12.46.109C26.293,114.139,20.172,114.144,16.923,111.239Zm37.973.032c3.137-3.008,9.941-2.925,12.391.044C64.418,114.12,58.212,114.163,54.9,111.271Zm52.627-52.72c-3.533,3.018-10.168,2.843-12.466-.187C98.272,55.651,104.465,55.7,107.524,58.55ZM48.453,119.664c-3.161,2.966-10.051,2.853-12.383-.1C39.07,116.758,45.205,116.737,48.453,119.664ZM88.489,67c-3.228,2.832-9.565,2.782-12.407.026C78.628,64.038,85.38,63.962,88.489,67Zm-18.96-8.5c-3.18,3.032-9.949,2.937-12.385-.053C59.988,55.693,66.335,55.661,69.529,58.5Z" fill="#fff" fill-rule="evenodd"/>
      <path id="Caminho_190" data-name="Caminho 190" d="M50.118,2.622C50.184.235,48.684-.514,46.684.342,40.928,2.805,35.2,5.326,29.452,7.814Q15.892,13.685,2.327,19.543c-.459.2-1.123.309-1.315.663A18.9,18.9,0,0,0,0,22.943c.853.3,1.8.985,2.539.808a29.193,29.193,0,0,0,4.636-1.857q20.11-8.7,40.2-17.435A16.207,16.207,0,0,0,50.118,2.622Z" transform="translate(25.673 12.327)" fill="#fff" fill-rule="evenodd"/>
      <path id="Caminho_191" data-name="Caminho 191" d="M1.921,6.746c2.639-1.182,4.97-2.094,7.145-3.29a2.421,2.421,0,0,0,.809-2.237A2.745,2.745,0,0,0,7.568.034,41.7,41.7,0,0,0,.724,3,2.512,2.512,0,0,0,.065,5.309C.278,5.95,1.32,6.315,1.921,6.746Z" transform="translate(8.779 37.092)" fill="#fff" fill-rule="evenodd"/>
      <path id="Caminho_192" data-name="Caminho 192" d="M10.44,13.072c2.878-.977,5.645-1.493,7.963-2.8,3.461-1.955,3.416-5.616.257-8C14.614-.784,6.278-.751,2.273,2.335c-2.947,2.271-3.125,5.814.038,7.7C4.727,11.476,7.649,12.069,10.44,13.072Zm6.187-6.786C13.719,9.243,7.011,9.2,4.382,6.213,7.211,3.271,14.025,3.312,16.626,6.287Z" transform="translate(71.744 43.845)" fill="#fff" fill-rule="evenodd"/>
      <path id="Caminho_193" data-name="Caminho 193" d="M10.634,13.071c2.745-.992,5.666-1.588,8.075-3.035,3.154-1.895,2.967-5.454.025-7.707C14.7-.755,6.4-.781,2.341,2.278-.805,4.65-.843,8.368,2.609,10.29,4.937,11.585,7.7,12.092,10.634,13.071Zm6.02-6.9C14.091,9.27,6.66,9.228,4.385,6.1,7.47,3.363,13.777,3.4,16.654,6.167Z" transform="translate(31.68 96.557)" fill="#fff" fill-rule="evenodd"/>
    </g>
  </g>
</svg>
