<svg xmlns="http://www.w3.org/2000/svg" width="52.19" height="52.192" viewBox="0 0 52.19 52.192">
  <path id="planeta-pequeno" d="M4.786,20.532a.757.757,0,0,0,0,.244c1.522,4.03-.477,7.135-2.606,10.257A13.4,13.4,0,0,0,.067,36.486a3.709,3.709,0,0,0,4.514,4.5c3.482-.594,6.4-2.434,9.181-4.474a3.8,3.8,0,0,1,3.379-.68A15.579,15.579,0,0,0,35.879,17.117a3.817,3.817,0,0,1,.666-3.385,22.416,22.416,0,0,0,4.376-8.7C41.629,1.54,39.533-.555,36.042.129a21.889,21.889,0,0,0-8.506,4.223,4.321,4.321,0,0,1-3.815.809A15.631,15.631,0,0,0,4.786,20.532ZM19.7,32.319a11.814,11.814,0,0,1-8.558-4.651,1.762,1.762,0,0,1,.035-2.687A108.827,108.827,0,0,1,25.052,11.1c1.061-.885,1.734-.693,2.687.041a11.965,11.965,0,0,1,4.009,13.212C30.13,29.076,25.5,32.348,19.7,32.319ZM9,21.416C7.75,14.454,15.255,7.557,21.385,9.023A119,119,0,0,0,9,21.416ZM4.186,36.972A7.086,7.086,0,0,1,5.415,33.29c2.011-3.875,2.1-3.872,5.1-.648a1.52,1.52,0,0,0,.191.151c.5.381.575.724-.033,1.1C8.682,35.107,6.785,36.521,4.186,36.972Zm32.7-32.934a6.486,6.486,0,0,1-1.181,3.653c-2.027,3.93-2.072,3.922-5.082.726a1.384,1.384,0,0,0-.187-.158c-.7-.515-.467-.824.169-1.223A18.175,18.175,0,0,1,36.888,4.039Z" transform="translate(38.821 52.192) rotate(-161)" fill="#fff" fill-rule="evenodd" opacity="0.8"/>
</svg>
