<svg xmlns="http://www.w3.org/2000/svg" width="106.107" height="102.369" viewBox="0 0 106.107 102.369">
  <g id="quimica" transform="translate(21.262 -4.08) rotate(14)" opacity="0.86">
    <path id="Caminho_93" data-name="Caminho 93" d="M30.367,87.882c-5.509,0-11.019.066-16.527-.018C7.82,87.773,3.182,85.355.769,79.554a8.235,8.235,0,0,1,.383-7.681C7.873,59.645,14.4,47.31,20.954,34.989a6.672,6.672,0,0,0,.782-2.954q.1-10.926-.006-21.852a3.6,3.6,0,0,0-.938-2.371c-1.486-1.4-2.22-2.926-1.557-4.911C19.914.87,21.577.13,23.53.056c2.506-.1,5.018-.039,7.528-.042,1.959,0,3.919-.028,5.876.017,2.082.048,3.927.633,4.695,2.819C42.35,4.9,41.6,6.5,39.98,7.882a2.77,2.77,0,0,0-.823,1.879q-.084,11.293,0,22.587a6.312,6.312,0,0,0,.832,2.758c6.535,12.26,13.044,24.537,19.731,36.715a8.46,8.46,0,0,1,.411,7.7c-2.052,5.243-6.758,8.287-13.054,8.35C41.508,87.926,35.938,87.882,30.367,87.882ZM9.219,62.454c-.487.791-.86,1.333-1.17,1.908-1.481,2.745-2.794,5.6-4.459,8.223-1.649,2.6-1.3,4.993.118,7.407A9.874,9.874,0,0,0,12.6,85.225q17.8.062,35.6.006a10.291,10.291,0,0,0,9.9-7.338,5.5,5.5,0,0,0-.433-4.573c-3.544-6.5-7.073-13-10.468-19.58a4.305,4.305,0,0,0-4.222-2.575c-.612,0-1.224-.014-1.835,0-3.846.11-8.7,2.932-8.755,7.922C32.355,62.2,30.6,64.62,28.055,66.4A13.215,13.215,0,0,1,10.27,63.7C10.013,63.373,9.731,63.061,9.219,62.454Zm34.858-14.1c-.368-.823-.6-1.436-.905-2.01-1.868-3.511-3.832-6.975-5.589-10.54a10.125,10.125,0,0,1-1.063-4.169c-.108-6.791-.045-13.584-.053-20.377,0-2.706-.017-2.712-2.792-2.721-2.326-.007-4.655.085-6.975-.027-1.777-.085-2.329.61-2.31,2.343.072,6.608-.035,13.219.061,19.826a11.889,11.889,0,0,1-1.577,6.1c-3.678,6.705-7.216,13.488-10.9,20.192a4.642,4.642,0,0,0,.247,5.163c2,3.137,6.555,4.747,10.781,3.81a8.563,8.563,0,0,0,7.025-7.44c.51-5.336,4.18-8.817,9.513-9.629C40.924,48.661,42.319,48.549,44.077,48.35ZM30.556,5.885c2.139,0,4.279,0,6.418,0,1.174,0,2.35-.154,2.309-1.677-.037-1.395-1.156-1.543-2.26-1.543q-6.6,0-13.2,0c-1.115,0-2.2.186-2.219,1.585s1.043,1.628,2.17,1.632C26.031,5.886,28.294,5.882,30.556,5.885Z" transform="translate(26.579 0)" fill="#fff" fill-rule="evenodd"/>
    <path id="Caminho_94" data-name="Caminho 94" d="M2.8,34.781c0-8.082-.019-16.164.014-24.245A3.5,3.5,0,0,0,1.447,7.371,3.733,3.733,0,0,1,.161,3.239,3.706,3.706,0,0,1,3.311.28,28.712,28.712,0,0,1,7.51.026C11,0,14.49-.016,17.98.036c2.5.036,4.094,1.023,4.687,2.835.678,2.072-.117,3.607-1.661,5.048a3.9,3.9,0,0,0-.834,2.6c-.051,13.531-.036,27.061-.037,40.593,0,2.388.005,4.776,0,7.163-.019,6.354-2.954,9.2-9.306,9.028-5.028-.134-7.984-3.064-8.012-8.1C2.77,51.067,2.8,42.924,2.8,34.781ZM5.581,22.8c-.054,1.065-.134,1.906-.135,2.747Q5.433,41.9,5.44,58.243c0,5.24,1.242,6.46,6.525,6.429.244,0,.49,0,.734-.005,3.027-.09,4.772-1.791,4.778-4.848.026-13.163-.008-26.327.034-39.49a2.6,2.6,0,0,0-2.434-2.878c-1.737-.322-2.148.871-2.508,2.224-.7,2.619-2.341,3.641-5.079,3.3C6.952,22.907,6.408,22.875,5.581,22.8Zm11.838-7.724c0-1.9.058-3.72-.051-5.526a1.467,1.467,0,0,0-1.08-.927c-3.18-.078-6.364-.1-9.542,0A1.737,1.737,0,0,0,5.537,9.816q-.162,4.308-.031,8.624c.043,1.452,1.281,1.836,2.448,2.053a1.8,1.8,0,0,0,2.2-1.437c1.313-3.931,1.978-4.34,6.112-3.982C16.558,15.1,16.856,15.077,17.419,15.077Zm-6.091-9.2c2.321,0,4.642.01,6.964,0,1.08-.006,2.022-.348,2.018-1.608s-.952-1.589-2.031-1.592q-6.781-.013-13.561,0c-1.062,0-2.048.248-2.1,1.521-.053,1.392.964,1.686,2.109,1.69C6.929,5.888,9.128,5.882,11.328,5.877Z" transform="translate(0 20.571)" fill="#fff" fill-rule="evenodd"/>
    <path id="Caminho_95" data-name="Caminho 95" d="M4.126,0A4.145,4.145,0,0,1,8.246,4.083,4.151,4.151,0,0,1,4.21,8.25,4.125,4.125,0,1,1,4.126,0ZM4.11,1.944C3.4,2.942,2.59,3.6,2.693,4.062c.137.612.983,1.066,1.525,1.588C4.693,5.124,5.5,4.625,5.548,4.065,5.589,3.534,4.828,2.939,4.11,1.944Z" transform="translate(8.816 8.964)" fill="#fff" fill-rule="evenodd"/>
    <path id="Caminho_96" data-name="Caminho 96" d="M2.541,0A2.706,2.706,0,0,1,5.25,2.453,2.7,2.7,0,0,1,2.717,5.262,2.7,2.7,0,0,1,0,2.629,2.711,2.711,0,0,1,2.541,0Z" transform="translate(16.185 0.17)" fill="#fff" fill-rule="evenodd"/>
    <path id="Caminho_97" data-name="Caminho 97" d="M1.136,0c.438.764.919,1.238.9,1.685-.018.333-.835.965-1.039.875A1.839,1.839,0,0,1,0,1.37C-.045,1.057.575.644,1.136,0Z" transform="translate(6.054 2.719)" fill="#fff" fill-rule="evenodd"/>
    <path id="Caminho_105" data-name="Caminho 105" d="M8.254,4.175A4.127,4.127,0,1,1,0,4,4.169,4.169,0,0,1,4.214,0,4.168,4.168,0,0,1,8.254,4.175ZM4.231,6.316c.664-1.031,1.392-1.664,1.326-2.2-.069-.552-.91-1.007-1.413-1.505-.514.55-1.332,1.046-1.44,1.667C2.623,4.737,3.47,5.356,4.231,6.316Z" transform="translate(42.608 54.507)" fill="#fff" fill-rule="evenodd"/>
    <path id="Caminho_106" data-name="Caminho 106" d="M5.257,2.72A2.707,2.707,0,0,1,2.632,5.261,2.7,2.7,0,0,1,0,2.541,2.709,2.709,0,0,1,2.628,0,2.7,2.7,0,0,1,5.257,2.72Z" transform="translate(49.983 45.727)" fill="#fff" fill-rule="evenodd"/>
    <path id="Caminho_107" data-name="Caminho 107" d="M1.11,2.638C.576,1.937.035,1.529,0,1.084-.025.748.6.363.934,0c.395.368.986.679,1.116,1.125C2.138,1.428,1.582,1.919,1.11,2.638Z" transform="translate(56.012 38.426)" fill="#fff" fill-rule="evenodd"/>
  </g>
</svg>
