<svg xmlns="http://www.w3.org/2000/svg" width="111.787" height="143.409" viewBox="0 0 111.787 143.409">
  <g id="robozinho" transform="matrix(0.985, -0.174, 0.174, 0.985, -1.541, 266.15)" opacity="0.75">
    <path id="Caminho_1" data-name="Caminho 1" d="M87.978-246.153a12.572,12.572,0,0,0-7.864,5.953c-2.512,4.806-1.2,11.468,2.894,14.581,1.8,1.42,1.857,1.584,1.857,5.188v3.768H72.578c-11.2,0-12.506.109-14.417,1.092-2.4,1.2-4.423,4.041-4.423,6.226,0,1.42-.055,1.42-3.768,1.42-2.512,0-3.932.273-4.369.765s-.6,4.806-.491,14.581l.164,13.871,4.1.273c3.987.273,4.041.273,4.369,1.911a8.6,8.6,0,0,0,3.659,5.57c1.911,1.474,2.239,1.529,9.83,1.693l7.809.218v5.3l-12.233.164c-13.653.164-13.816.218-16.547,4.26C45-157.52,45-157.356,45-137.7c0,19.059.055,19.878,1.038,20.424,1.474.765,87.1.765,88.578,0,.983-.546,1.038-1.365,1.038-20.424,0-19.66,0-19.824-1.2-21.626-2.785-4.041-2.949-4.1-16.6-4.26l-12.233-.164v-5.3l7.864-.218c6.936-.164,8.082-.273,9.393-1.311a9.845,9.845,0,0,0,3.987-5.734l.382-1.857,4.041-.273,4.1-.273.164-13.871c.109-9.775-.055-14.089-.491-14.581s-1.857-.765-4.314-.765h-3.659l-.328-1.857a7.732,7.732,0,0,0-4.26-5.843c-1.857-.928-3.277-1.038-14.417-1.038H95.787v-3.768c0-3.6.055-3.768,1.857-5.188,4.369-3.331,5.516-10.758,2.348-15.509A11.891,11.891,0,0,0,87.978-246.153Zm6.553,4.915c4.751,2.84,4.533,10.813-.328,13.379a7.763,7.763,0,0,1-11.523-6.717c0-4.642,3.058-7.755,7.645-7.755A8.578,8.578,0,0,1,94.531-241.238Zm-3.113,21.3c0,2.894-.109,3.277-1.092,3.277s-1.092-.382-1.092-3.277.109-3.277,1.092-3.277S91.419-222.834,91.419-219.94Zm30.309,8.465,1.365,1.311v34.3l-1.42,1.311-1.42,1.311H60.4l-1.42-1.311-1.42-1.311v-34.3l1.365-1.311,1.311-1.365h60.18Zm-68.1,18.4.109,10.813H48.823v-21.9l2.348.164,2.294.164Zm78.2-.109v10.922h-4.915V-192.8c0-5.843.164-10.758.382-10.922a5.25,5.25,0,0,1,2.457-.382h2.075Zm-30.582,26.759v2.73H79.4v-5.461h21.844Zm29,8.137,1.584,1.584v36.207l-7.482-.164-7.536-.164-.273-9.557-.273-9.557L90.6-140.1c-23.646-.109-25.721-.055-26.322.819-.491.655-.71,3.55-.71,9.83v8.9H48.823V-156.7l1.584-1.584,1.584-1.584h76.673Zm-17.53,29.817v7.918l-22.5-.109-22.554-.164-.164-7.809-.164-7.755h45.381Z" transform="translate(0 0)" fill="rgba(255,255,255,0.93)"/>
    <path id="Caminho_2" data-name="Caminho 2" d="M83.878-170.9a8.923,8.923,0,0,0-2.84,11.8c1.2,1.911,4.97,4.041,7.1,4.041s5.9-2.13,7.1-4.041a9.346,9.346,0,0,0-.164-9.12A8.581,8.581,0,0,0,83.878-170.9Zm7.209,3.877a4.88,4.88,0,0,1,.874,5.9,4.53,4.53,0,0,1-5.461,1.693c-2.021-.819-2.731-2.021-2.731-4.587a4.342,4.342,0,0,1,4.369-4.15A5.562,5.562,0,0,1,91.087-167.019Z" transform="translate(-15.833 -33.753)" fill="rgba(255,255,255,0.93)"/>
    <path id="Caminho_3" data-name="Caminho 3" d="M150.369-171.009A7.837,7.837,0,0,0,146-163.637a7.62,7.62,0,0,0,4.587,7.427c2.84,1.42,4.314,1.42,7.209.109a7.755,7.755,0,0,0,4.587-7.482A8.123,8.123,0,0,0,150.369-171.009Zm6.772,3.987a4.88,4.88,0,0,1,.874,5.9,4.53,4.53,0,0,1-5.461,1.693c-2.021-.819-2.731-2.021-2.731-4.587a4.342,4.342,0,0,1,4.369-4.15A5.562,5.562,0,0,1,157.14-167.023Z" transform="translate(-45.844 -33.749)" fill="rgba(255,255,255,0.93)"/>
    <path id="Caminho_4" data-name="Caminho 4" d="M104.613-129.181a2.486,2.486,0,0,0-.437,1.748c.164.928,1.092.983,13,.983s12.833-.055,13-.983c.492-2.4-.437-2.567-13-2.567C107.453-130,105.159-129.836,104.613-129.181Z" transform="translate(-26.847 -52.805)" fill="rgba(255,255,255,0.93)"/>
    <path id="Caminho_5" data-name="Caminho 5" d="M59.621-82.047A4.58,4.58,0,0,0,57-77.46a5.4,5.4,0,0,0,5.079,4.915c5.406,0,7.154-7.209,2.294-9.5C62.188-83.084,61.533-83.084,59.621-82.047Zm3.331,3.44a1.268,1.268,0,0,1-.71,2.239,1.308,1.308,0,0,1-1.2-1.911C61.369-79.207,61.86-79.262,62.953-78.606Z" transform="translate(-5.447 -74.217)" fill="rgba(255,255,255,0.93)"/>
    <path id="Caminho_6" data-name="Caminho 6" d="M182.761-82.113a6.074,6.074,0,0,0-2.13,2.4,5.052,5.052,0,0,0,8.246,5.57c2.567-2.621,2.075-6.335-1.147-7.973A4.555,4.555,0,0,0,182.761-82.113Zm3.768,4.26a1.294,1.294,0,0,1-2.184,1.038c-.437-.437-.437-.874.109-1.474C185.328-79.328,186.311-79.109,186.529-77.853Z" transform="translate(-61.362 -74.206)" fill="rgba(255,255,255,0.93)"/>
  </g>
</svg>
