<svg xmlns="http://www.w3.org/2000/svg" width="110.578" height="110.578" viewBox="0 0 110.578 110.578">
  <g id="satelite" transform="translate(0 0)" opacity="0.83">
    <path id="Caminho_64" data-name="Caminho 64" d="M17.537-238.417C10.258-231.137,8-228.6,8-227.727c0,1.7,29.672,31.33,31.33,31.33a4.492,4.492,0,0,0,2.811-1.659c1.474-1.52,1.7-1.613,3.64-1.336,5.3.691,5.252.276.553,5.022-4.515,4.607-5.16,5.529-5.16,7.6,0,1.382-.046,1.428-2.3,1.428a8.407,8.407,0,0,0-6.543,2.58c-1.7,1.843-2.212,3.409-2.212,7a11.443,11.443,0,0,0,1.336,5.9,12.065,12.065,0,0,0,1.889,3.179c.829.507-2.212,3.456-3.594,3.456a3.206,3.206,0,0,0-3.317,2.488,3.82,3.82,0,0,0,5.068,4.792,3.058,3.058,0,0,0,2.3-3.225c0-1.382,2.949-4.423,3.456-3.594a12.065,12.065,0,0,0,3.179,1.889,11.443,11.443,0,0,0,5.9,1.336c3.594,0,5.16-.507,7-2.212a8.407,8.407,0,0,0,2.58-6.543c0-2.258.046-2.3,1.428-2.3,2.073,0,2.995-.645,7.6-5.16,4.746-4.7,4.331-4.746,5.022.553.276,1.935.184,2.165-1.336,3.64a4.492,4.492,0,0,0-1.659,2.811c0,1.659,29.626,31.33,31.33,31.33,1.659,0,20.273-18.614,20.273-20.273,0-1.7-29.672-31.33-31.376-31.33a4.524,4.524,0,0,0-2.764,1.659c-1.659,1.7-2.119,1.8-7.049.829l-1.29-.276,3.686-3.778a34.33,34.33,0,0,0,4.239-4.884,10.814,10.814,0,0,0,.6-3.824c-.092-7.326-7.51-14.7-14.836-14.7a10.7,10.7,0,0,0-3.778.553,37.863,37.863,0,0,0-4.838,4.239l-3.778,3.686-.276-1.29c-.968-4.93-.875-5.391.829-7.049A4.492,4.492,0,0,0,59.6-216.67c0-1.7-29.626-31.33-31.33-31.33C27.4-248,24.909-245.788,17.537-238.417Zm13.039-2.442,2.027,2.073-3.087,3.133-3.087,3.087-2.165-2.212-2.212-2.165,2.995-2.995a26.164,26.164,0,0,1,3.225-2.995A13.386,13.386,0,0,1,30.576-240.859Zm7.372,7.372,2.027,2.073-3.087,3.133L33.8-225.193,31.636-227.4l-2.212-2.165,2.995-2.995a26.166,26.166,0,0,1,3.225-2.995A13.386,13.386,0,0,1,37.948-233.487Zm-16.587,1.843,2.027,2.073L20.3-226.437l-3.087,3.087-2.165-2.212-2.212-2.165,2.995-2.995a26.169,26.169,0,0,1,3.225-2.995A13.387,13.387,0,0,1,21.361-231.644Zm23.958,5.529,2.027,2.073-3.087,3.133-3.087,3.087-2.165-2.212L36.8-222.2l2.995-2.995a26.17,26.17,0,0,1,3.225-2.995A13.387,13.387,0,0,1,45.32-226.115Zm-16.587,1.843,2.027,2.073-3.087,3.133-3.087,3.087-2.165-2.212-2.212-2.165L23.2-223.35a26.166,26.166,0,0,1,3.225-2.995A13.385,13.385,0,0,1,28.733-224.272Zm23.958,5.529,2.027,2.073-3.087,3.133-3.087,3.087-2.165-2.212-2.212-2.165,2.995-2.995a26.165,26.165,0,0,1,3.225-2.995A13.386,13.386,0,0,1,52.692-218.743ZM36.105-216.9l2.027,2.073-3.087,3.133-3.087,3.087-2.165-2.212-2.212-2.165,2.995-2.995a26.166,26.166,0,0,1,3.225-2.995A13.387,13.387,0,0,1,36.105-216.9Zm7.372,7.372,2.027,2.073-3.087,3.133-3.087,3.087-2.165-2.212-2.212-2.165,2.995-2.995a26.168,26.168,0,0,1,3.225-2.995A13.386,13.386,0,0,1,43.477-209.528Zm30.547,1.06c4.607,2.488,7.648,8.339,5.944,11.426-.276.507-4.008,4.377-8.339,8.662L63.8-180.548l-.507-1.382a18.736,18.736,0,0,0-9.353-10.09l-2.764-1.244,7.787-7.833c4.285-4.331,8.432-8.109,9.169-8.432C69.785-210.265,71.075-210.035,74.024-208.468ZM52-188.38a16.933,16.933,0,0,1,6.681,6.45c1.889,3.916.783,7.188-2.488,7.188-1.29,0-1.659-.23-2.165-1.474-.783-1.889-5.345-6.45-7.234-7.234-1.244-.507-1.474-.875-1.474-2.165C45.32-188.657,48.315-189.9,52-188.38Zm37.55,6.5,2.027,2.073-3.087,3.133L85.4-173.59,83.239-175.8l-2.212-2.165,2.995-2.995a26.167,26.167,0,0,1,3.225-2.995A13.387,13.387,0,0,1,89.551-181.884ZM43.8-180.225c4.515,2.165,7.971,7.188,7.971,11.519,0,1.981-.23,2.534-1.336,3.686-1.843,1.8-5.022,1.843-8.432.138l-2.35-1.2,2.488-2.488,2.442-2.488-1.474-1.474-1.474-1.474-2.488,2.442-2.488,2.488-1.2-2.35c-1.7-3.409-1.659-6.589.138-8.432,1.152-1.152,1.7-1.336,3.778-1.336A10.723,10.723,0,0,1,43.8-180.225Zm53.123,5.713,2.027,2.073-3.087,3.133-3.087,3.087-2.165-2.212L88.4-170.6l2.995-2.995a26.169,26.169,0,0,1,3.225-2.995A13.385,13.385,0,0,1,96.923-174.512Zm-16.587,1.843,2.027,2.073-3.087,3.133-3.087,3.087-2.165-2.212-2.212-2.165,2.995-2.995a26.164,26.164,0,0,1,3.225-2.995A13.387,13.387,0,0,1,80.336-172.669Zm23.958,5.529,2.027,2.073-3.087,3.133-3.087,3.087-2.165-2.212-2.212-2.165,2.995-2.995a26.166,26.166,0,0,1,3.225-2.995A13.385,13.385,0,0,1,104.295-167.14ZM87.708-165.3l2.027,2.073-3.087,3.133L83.561-157,81.4-159.215l-2.212-2.165,2.995-2.995A26.168,26.168,0,0,1,85.4-167.37,13.387,13.387,0,0,1,87.708-165.3Zm23.958,5.529,2.027,2.073-3.087,3.133-3.087,3.087-2.165-2.212-2.212-2.165,2.995-2.995a26.167,26.167,0,0,1,3.225-2.995A13.386,13.386,0,0,1,111.667-159.768ZM95.08-157.925l2.027,2.073-3.087,3.133-3.087,3.087-2.165-2.212-2.212-2.165L89.551-157A26.164,26.164,0,0,1,92.776-160,13.386,13.386,0,0,1,95.08-157.925Zm7.372,7.372,2.027,2.073-3.087,3.133-3.087,3.087-2.165-2.212-2.212-2.165,2.995-2.995a26.166,26.166,0,0,1,3.225-2.995A13.386,13.386,0,0,1,102.452-150.553Z" transform="translate(-8 248)" fill="#fff"/>
    <path id="Caminho_65" data-name="Caminho 65" d="M135.686-229.236v2.764H132v3.686h3.686v5.529h3.686v-5.529h3.686v-3.686h-3.686V-232h-3.686Z" transform="translate(-74.868 239.372)" fill="#fff"/>
    <path id="Caminho_66" data-name="Caminho 66" d="M219.686-145.236v2.764H216v3.686h3.686v5.529h3.686v-5.529h3.686v-3.686h-3.686V-148h-3.686Z" transform="translate(-120.166 194.074)" fill="#fff"/>
    <path id="Caminho_67" data-name="Caminho 67" d="M11.686-133.236v2.764H8v3.686h3.686v5.529h3.686v-5.529h3.686v-3.686H15.372V-136H11.686Z" transform="translate(-8 187.603)" fill="#fff"/>
    <path id="Caminho_68" data-name="Caminho 68" d="M28-58.387c0,6.036,6.082,12.44,12.486,13.039l2.258.23v-2.165c0-1.981-.046-2.119-1.244-2.119-4.193-.046-9.353-5.252-9.353-9.445,0-1.06-.184-1.152-2.073-1.152C28-60,28-60,28-58.387Z" transform="translate(-18.785 146.619)" fill="#fff"/>
    <path id="Caminho_69" data-name="Caminho 69" d="M8-53.973c0,9.768,10.367,20.088,20.134,20.088h1.981v-4.008l-2.534-.276c-7.51-.783-14.513-7.787-15.3-15.3L12.008-56H8Z" transform="translate(-8 144.462)" fill="#fff"/>
  </g>
</svg>
