<svg xmlns="http://www.w3.org/2000/svg" width="21.448" height="23.148" viewBox="0 0 21.448 23.148">
  <path id="x-3" d="M482.142,424.834c.283-3.177,1.454-6.179.483-7.265-3.447-3.854-4.151-6.952-.1-10.8.817-.775.087-3.182.069-4.836-1.833.029-4.411-.706-5.368.223-3.469,3.378-6.166,3.5-9.728.065-1.067-1.027-3.912-.216-5.943-.247.261,1.824-.125,4.253.906,5.359,2.953,3.166,3.759,5.6.338,9.114-1.2,1.233-.633,4.184-.875,6.35,2.015-.321,4.731.065,5.912-1.1,3.369-3.327,6-3.177,9.035.187C477.708,422.808,479.14,423.2,482.142,424.834Z" transform="translate(-461.555 -401.686)" fill="#fff" fill-rule="evenodd" opacity="0.55"/>
</svg>
