<svg xmlns="http://www.w3.org/2000/svg" width="30.726" height="31.185" viewBox="0 0 30.726 31.185">
  <path id="x" d="M.861,0C.578,3.177-.593,6.179.379,7.265c3.447,3.854,4.151,6.952.1,10.8-.817.775-.087,3.182-.069,4.836,1.833-.029,4.411.706,5.368-.223,3.469-3.378,6.166-3.5,9.728-.065,1.067,1.027,3.912.216,5.943.247-.261-1.824.125-4.253-.906-5.359-2.953-3.166-3.759-5.6-.338-9.114,1.2-1.233.633-4.184.875-6.35-2.015.321-4.731-.065-5.912,1.1-3.369,3.327-6,3.177-9.035-.187C5.3,2.026,3.864,1.639.861,0Z" transform="translate(30.726 19.191) rotate(146)" fill="#fff" fill-rule="evenodd"/>
</svg>
