<svg xmlns="http://www.w3.org/2000/svg" width="47.385" height="47.385" viewBox="0 0 47.385 47.385">
  <path id="close" d="M42.943,2.25H4.442C1.99,2.25,0,4.524,0,7.327V44.558c0,2.8,1.99,5.077,4.442,5.077h38.5c2.453,0,4.442-2.274,4.442-5.077V7.327C47.385,4.524,45.4,2.25,42.943,2.25ZM35.206,32.977a1.437,1.437,0,0,1,0,1.84L31.458,39.1a1.042,1.042,0,0,1-1.61,0L23.693,32l-6.155,7.1a1.042,1.042,0,0,1-1.61,0L12.18,34.817a1.437,1.437,0,0,1,0-1.84l6.21-7.034-6.21-7.034a1.437,1.437,0,0,1,0-1.84l3.748-4.284a1.042,1.042,0,0,1,1.61,0l6.155,7.1,6.155-7.1a1.042,1.042,0,0,1,1.61,0l3.748,4.284a1.437,1.437,0,0,1,0,1.84L29,25.943Z" transform="translate(0 -2.25)" fill="#fff"/>
</svg>
