<svg xmlns="http://www.w3.org/2000/svg" width="58.099" height="58.099" viewBox="0 0 58.099 58.099">
  <g id="instagram-blue" transform="translate(0.001)">
    <path id="Caminho_292" data-name="Caminho 292" d="M42.371,0H15.726A15.744,15.744,0,0,0,0,15.727V42.372A15.744,15.744,0,0,0,15.726,58.1H42.371A15.744,15.744,0,0,0,58.1,42.372V15.727A15.744,15.744,0,0,0,42.371,0ZM29.048,44.935A15.886,15.886,0,1,1,44.934,29.049,15.9,15.9,0,0,1,29.048,44.935ZM45.314,16.91a4.694,4.694,0,1,1,4.695-4.694A4.7,4.7,0,0,1,45.314,16.91Zm0,0" fill="#007bcc"/>
    <path id="Caminho_293" data-name="Caminho 293" d="M158.5,146.02a12.48,12.48,0,1,0,12.48,12.48A12.494,12.494,0,0,0,158.5,146.02Zm0,0" transform="translate(-129.451 -129.451)" fill="#007bcc"/>
    <path id="Caminho_294" data-name="Caminho 294" d="M389.281,96.3a1.288,1.288,0,1,0,1.289,1.288A1.29,1.29,0,0,0,389.281,96.3Zm0,0" transform="translate(-343.966 -85.373)" fill="#007bcc"/>
  </g>
</svg>
