<svg xmlns="http://www.w3.org/2000/svg" width="60" height="60" viewBox="0 0 60 60">
  <g id="instagram" transform="translate(0.001)">
    <path id="Caminho_292" data-name="Caminho 292" d="M43.758,0H16.24A16.26,16.26,0,0,0,0,16.241V43.759A16.26,16.26,0,0,0,16.24,60H43.758A16.26,16.26,0,0,0,60,43.759V16.241A16.26,16.26,0,0,0,43.758,0ZM30,46.406A16.406,16.406,0,1,1,46.4,30,16.424,16.424,0,0,1,30,46.406ZM46.8,17.463a4.848,4.848,0,1,1,4.848-4.848A4.853,4.853,0,0,1,46.8,17.463Zm0,0" fill="#fff"/>
    <path id="Caminho_293" data-name="Caminho 293" d="M158.908,146.02A12.888,12.888,0,1,0,171.8,158.908,12.9,12.9,0,0,0,158.908,146.02Zm0,0" transform="translate(-128.909 -128.908)" fill="#fff"/>
    <path id="Caminho_294" data-name="Caminho 294" d="M389.323,96.3a1.33,1.33,0,1,0,1.331,1.33A1.332,1.332,0,0,0,389.323,96.3Zm0,0" transform="translate(-342.525 -85.016)" fill="#fff"/>
  </g>
</svg>
