<svg id="pc" xmlns="http://www.w3.org/2000/svg" width="1600" height="1600.001" viewBox="0 0 1600 1600.001">
  <path id="Caminho_332" data-name="Caminho 332" d="M1215.216,1483.876a796.606,796.606,0,0,1-155.091,72.834,20.759,20.759,0,0,1-27.516-19.613V1379.891a31.249,31.249,0,0,0-31.25-31.25H243.385a58.2,58.2,0,0,1-43.625-19.809C75.447,1187.844,0,1002.741,0,800,0,358.175,358.172,0,800,0c441.488,0,801.041,360.438,800,801.925a796.308,796.308,0,0,1-164.159,483.56,176.3,176.3,0,0,0-44.594-5.712h0A176.032,176.032,0,0,0,1215.213,1455.8v28.072Z" transform="translate(0 0)" fill="#f19c49"/>
  <path id="Caminho_333" data-name="Caminho 333" d="M1203.05,825.132a796.216,796.216,0,0,1-153.581,72.325,17.459,17.459,0,0,1-23.094-16.55v-165.7a31.25,31.25,0,0,0-31.25-31.25H230.056a66.681,66.681,0,0,1-50.688-23.4A797.348,797.348,0,0,1,5.725,310h1564.22a796.54,796.54,0,0,1-146.294,316.731,176.277,176.277,0,0,0-44.569-5.706h0a176.032,176.032,0,0,0-176.031,176.031v28.075Z" transform="translate(12.166 658.751)" fill="#065d9b"/>
  <path id="Caminho_334" data-name="Caminho 334" d="M550,557.875H200V311H550Z" transform="translate(425 660.876)" fill="#91b9ff"/>
  <path id="Caminho_335" data-name="Caminho 335" d="M262.5,476.25v62.5H200V320H550v93.75H325A62.5,62.5,0,0,0,262.5,476.25Z" transform="translate(425 680.001)" fill="#82aaf0"/>
  <path id="Caminho_336" data-name="Caminho 336" d="M1390,61.25v875a31.249,31.249,0,0,1-31.25,31.25H71.25A31.249,31.249,0,0,1,40,936.25v-875A31.249,31.249,0,0,1,71.25,30h1287.5A31.249,31.249,0,0,1,1390,61.25ZM936.875,1092.5H493.125A78.126,78.126,0,0,0,415,1170.625h0a15.627,15.627,0,0,0,15.625,15.625h568.75A15.627,15.627,0,0,0,1015,1170.625h0A78.126,78.126,0,0,0,936.875,1092.5Z" transform="translate(85 63.75)" fill="#91b9ff"/>
  <path id="Caminho_337" data-name="Caminho 337" d="M1326.251,61.25v875A31.249,31.249,0,0,1,1295,967.5H101.25A31.249,31.249,0,0,1,70,936.25v-875A31.249,31.249,0,0,1,101.25,30H1295A31.249,31.249,0,0,1,1326.251,61.25ZM873.125,1092.5H515.313a78.126,78.126,0,0,0-78.125,78.125,15.627,15.627,0,0,0,15.625,15.625H935.626a15.627,15.627,0,0,0,15.625-15.625A78.126,78.126,0,0,0,873.125,1092.5Z" transform="translate(148.75 63.75)" fill="#a5cdfa"/>
  <path id="Caminho_338" data-name="Caminho 338" d="M1243.126,810H80.625A15.627,15.627,0,0,1,65,794.375V75.625A15.627,15.627,0,0,1,80.625,60h1162.5a15.627,15.627,0,0,1,15.625,15.625v718.75A15.627,15.627,0,0,1,1243.126,810Z" transform="translate(138.125 127.5)" fill="#e8f5ff"/>
  <path id="Caminho_339" data-name="Caminho 339" d="M127.5,810H80.625A15.627,15.627,0,0,1,65,794.375V75.625A15.627,15.627,0,0,1,80.625,60H127.5a15.627,15.627,0,0,0-15.625,15.625v718.75A15.627,15.627,0,0,0,127.5,810Z" transform="translate(138.125 127.5)" fill="#c6d5e1"/>
  <g id="Grupo_63" data-name="Grupo 63" transform="translate(191.031 1156.251)">
    <path id="Caminho_340" data-name="Caminho 340" d="M932.6,659.131A798.7,798.7,0,0,1,670.1,703.25C426.221,703.25,207.867,594.088,61.13,422H901.349a31.25,31.25,0,0,1,31.25,31.25Z" transform="translate(-61.13 -259.5)" fill="#a5cdfa"/>
    <path id="Caminho_341" data-name="Caminho 341" d="M407.309,697.941A124.435,124.435,0,0,1,380,620V495A125,125,0,0,1,505,370h0A125,125,0,0,1,630,495v2.056A804.122,804.122,0,0,1,407.309,697.941Z" transform="translate(616.47 -370)" fill="#a5cdfa"/>
  </g>
  <path id="Caminho_342" data-name="Caminho 342" d="M1081.074,601.11a124.248,124.248,0,0,0,17.6,63.891q-24.192,17.288-49.681,32.813a124.414,124.414,0,0,1-27.313-77.941v-125A125,125,0,0,1,1139.927,370.06a124.888,124.888,0,0,0-58.853,106.05v125Zm65.606-199.988a31.25,31.25,0,0,0-31.25,31.25v31.25a31.25,31.25,0,1,0,62.5,0v-31.25A31.25,31.25,0,0,0,1146.68,401.122ZM506.055,682.373h-31.25A15.627,15.627,0,0,0,459.18,698v31.25a15.627,15.627,0,0,0,15.625,15.625h31.25a15.627,15.627,0,0,0,15.625-15.625V698A15.627,15.627,0,0,0,506.055,682.373Zm0,93.75h-31.25a15.627,15.627,0,0,0-15.625,15.625v2.625q30.82,6.877,62.5,11.338V791.748A15.627,15.627,0,0,0,506.055,776.123Zm-93.75,0H391.561q17.522,5.569,35.387,10.341A15.582,15.582,0,0,0,412.305,776.123Zm-93.75-187.5H78.033a804.748,804.748,0,0,0,72.838,62.5H318.555A15.626,15.626,0,0,0,334.18,635.5v-31.25A15.627,15.627,0,0,0,318.555,588.623Zm93.75,93.75h-31.25A15.626,15.626,0,0,0,365.43,698v31.25a15.627,15.627,0,0,0,15.625,15.625h31.25a15.627,15.627,0,0,0,15.625-15.625V698A15.626,15.626,0,0,0,412.305,682.373Zm-31.25-31.25h93.75A15.626,15.626,0,0,0,490.43,635.5v-31.25a15.627,15.627,0,0,0-15.625-15.625h-93.75a15.627,15.627,0,0,0-15.625,15.625V635.5A15.626,15.626,0,0,0,381.055,651.122Zm-62.5,31.25H195.061a798.694,798.694,0,0,0,114.275,62.5h9.219a15.627,15.627,0,0,0,15.625-15.625V698A15.626,15.626,0,0,0,318.555,682.373Zm500,93.75H662.305a15.627,15.627,0,0,0-15.625,15.625v21.716A800.762,800.762,0,0,0,833.833,788.5,15.625,15.625,0,0,0,818.555,776.123Zm0-93.75h-62.5A15.627,15.627,0,0,0,740.43,698v31.25a15.627,15.627,0,0,0,15.625,15.625h62.5a15.627,15.627,0,0,0,15.625-15.625V698A15.626,15.626,0,0,0,818.555,682.373Zm-218.75,93.75h-31.25a15.627,15.627,0,0,0-15.625,15.625v17.794q30.919,3.121,62.5,3.844V791.748A15.627,15.627,0,0,0,599.805,776.123Zm218.75-187.5h-125a15.627,15.627,0,0,0-15.625,15.625V635.5a15.626,15.626,0,0,0,15.625,15.625h125A15.626,15.626,0,0,0,834.18,635.5v-31.25A15.627,15.627,0,0,0,818.555,588.623Zm-218.75,93.75h-31.25A15.626,15.626,0,0,0,552.93,698v31.25a15.627,15.627,0,0,0,15.625,15.625h31.25a15.627,15.627,0,0,0,15.625-15.625V698A15.626,15.626,0,0,0,599.805,682.373Zm46.875-78.125a15.627,15.627,0,0,0-15.625-15.625h-93.75a15.627,15.627,0,0,0-15.625,15.625V635.5a15.626,15.626,0,0,0,15.625,15.625h93.75A15.626,15.626,0,0,0,646.68,635.5Zm0,125a15.627,15.627,0,0,0,15.625,15.625h31.25a15.627,15.627,0,0,0,15.625-15.625V698a15.627,15.627,0,0,0-15.625-15.625h-31.25A15.627,15.627,0,0,0,646.68,698Z" transform="translate(165.82 786.379)" fill="#91b9ff"/>
</svg>
