<svg xmlns="http://www.w3.org/2000/svg" width="100" height="96.054" viewBox="0 0 100 96.054">
  <g id="valor" transform="translate(0 -0.002)">
    <path id="Caminho_296" data-name="Caminho 296" d="M58.685,5.4l6.67,13.515a15.176,15.176,0,0,0,11.429,8.3L91.7,29.385A9.685,9.685,0,0,1,97.066,45.9L86.274,56.424a15.179,15.179,0,0,0-4.366,13.435l2.547,14.854A9.685,9.685,0,0,1,70.4,94.922L57.065,87.909a15.175,15.175,0,0,0-14.127,0L29.6,94.922a9.685,9.685,0,0,1-14.052-10.21l2.547-14.854a15.179,15.179,0,0,0-4.366-13.435L2.937,45.9A9.684,9.684,0,0,1,8.3,29.385l14.914-2.168a15.177,15.177,0,0,0,11.429-8.3L41.316,5.4a9.685,9.685,0,0,1,17.369,0Zm0,0" transform="translate(-0.001)" fill="#ffeb99"/>
    <path id="Caminho_297" data-name="Caminho 297" d="M40.408,40.926c7.921-7.374,15.808-24.89,19.333-33.387L58.684,5.4a9.685,9.685,0,0,0-17.369,0l-6.67,13.515a15.177,15.177,0,0,1-11.429,8.3L8.3,29.386A9.685,9.685,0,0,0,2.935,45.9L13.728,56.424a15.179,15.179,0,0,1,4.365,13.435L15.545,84.713A9.685,9.685,0,0,0,29.6,94.923l9.56-5.026c6.416-22.783-12.966-35.734,1.251-48.971Zm0,0" transform="translate(0 0)" fill="#ffde55"/>
    <g id="Grupo_41" data-name="Grupo 41" transform="translate(32.262 48.534)">
      <path id="Caminho_298" data-name="Caminho 298" d="M332.876,254.008a1.509,1.509,0,0,1-1.509-1.509v-2.5a1.509,1.509,0,0,1,3.018,0v2.5A1.509,1.509,0,0,1,332.876,254.008Zm0,0" transform="translate(-298.91 -248.485)" fill="#57565c"/>
      <path id="Caminho_299" data-name="Caminho 299" d="M166.693,254.008a1.509,1.509,0,0,1-1.509-1.509v-2.5a1.509,1.509,0,0,1,3.018,0v2.5A1.509,1.509,0,0,1,166.693,254.008Zm0,0" transform="translate(-165.183 -248.485)" fill="#57565c"/>
      <path id="Caminho_300" data-name="Caminho 300" d="M230.786,265.91a9.017,9.017,0,0,1-5.536-1.9,1.509,1.509,0,0,1,1.85-2.385,6.011,6.011,0,0,0,7.372,0,1.509,1.509,0,0,1,1.849,2.385,9.017,9.017,0,0,1-5.536,1.9Zm0,0" transform="translate(-213.048 -258.807)" fill="#57565c"/>
    </g>
  </g>
</svg>
