<svg xmlns="http://www.w3.org/2000/svg" width="100" height="102.569" viewBox="0 0 100 102.569">
  <g id="visao" transform="translate(-6.412)">
    <path id="Caminho_305" data-name="Caminho 305" d="M6.553,136.523c23.419,39.393,76.3,39.393,99.718,0a1.011,1.011,0,0,0,0-1.031c-23.42-39.393-76.3-39.393-99.718,0A1.01,1.01,0,0,0,6.553,136.523Z" transform="translate(0 -84.723)" fill="#e6eaee"/>
    <path id="Caminho_306" data-name="Caminho 306" d="M286.077,136.528c-12.725,21.4-34.146,31.179-54.815,29.322,17.371-1.557,34.209-11.332,44.9-29.322a1,1,0,0,0,0-1.029c-10.694-17.99-27.533-27.765-44.9-29.322,20.669-1.858,42.09,7.917,54.815,29.322A1.011,1.011,0,0,1,286.077,136.528Z" transform="translate(-179.806 -84.729)" fill="#cdd3d9"/>
    <path id="Caminho_320" data-name="Caminho 320" d="M29.461,0A29.461,29.461,0,1,1,0,29.461,29.461,29.461,0,0,1,29.461,0Z" transform="translate(26.952 21.824)" fill="#e4b688"/>
    <path id="Caminho_307" data-name="Caminho 307" d="M266.161,138.4a29.483,29.483,0,0,1-34.3,29.065,29.465,29.465,0,0,0,0-58.131,29.483,29.483,0,0,1,34.3,29.065Z" transform="translate(-180.288 -87.114)" fill="#af8e6d"/>
    <circle id="Elipse_6" data-name="Elipse 6" cx="9.91" cy="9.91" r="9.91" transform="translate(45.909 42.539)" fill="#5c6d7d"/>
    <path id="Caminho_308" data-name="Caminho 308" d="M252.943,222.253a9.919,9.919,0,0,1-12.421,9.591,9.914,9.914,0,0,0,0-19.182,9.919,9.919,0,0,1,12.421,9.591Z" transform="translate(-187.211 -169.803)" fill="#53616d"/>
    <g id="Grupo_44" data-name="Grupo 44" transform="translate(55.883 40.207)">
      <circle id="Elipse_7" data-name="Elipse 7" cx="5.515" cy="5.515" r="5.515" transform="translate(0 0.001)" fill="#edebed"/>
      <path id="Caminho_309" data-name="Caminho 309" d="M280.831,206.222a5.52,5.52,0,0,1-6.913,5.338,5.518,5.518,0,0,0,0-10.675,5.52,5.52,0,0,1,6.913,5.338Z" transform="translate(-269.8 -200.706)" fill="#edebed"/>
    </g>
    <g id="Grupo_45" data-name="Grupo 45" transform="translate(11.795)">
      <path id="Caminho_310" data-name="Caminho 310" d="M249.962,8.577a1.513,1.513,0,0,1-1.513-1.513V1.513a1.513,1.513,0,0,1,3.025,0V7.065A1.513,1.513,0,0,1,249.962,8.577Z" transform="translate(-205.345)" fill="#ffd071"/>
      <path id="Caminho_311" data-name="Caminho 311" d="M249.962,477.761a1.513,1.513,0,0,1-1.513-1.513V470.7a1.513,1.513,0,0,1,3.025,0v5.552A1.513,1.513,0,0,1,249.962,477.761Z" transform="translate(-205.345 -375.192)" fill="#ffd071"/>
      <path id="Caminho_312" data-name="Caminho 312" d="M128.514,41.12a1.512,1.512,0,0,1-1.312-.757l-2.776-4.808a1.513,1.513,0,0,1,2.62-1.513l2.776,4.808a1.513,1.513,0,0,1-1.309,2.269Z" transform="translate(-106.005 -26.618)" fill="#ffd071"/>
      <path id="Caminho_313" data-name="Caminho 313" d="M363.1,447.444a1.512,1.512,0,0,1-1.312-.757l-2.776-4.808a1.513,1.513,0,1,1,2.62-1.513l2.776,4.808a1.513,1.513,0,0,1-1.309,2.269Z" transform="translate(-293.6 -351.542)" fill="#ffd071"/>
      <path id="Caminho_314" data-name="Caminho 314" d="M39.605,130.026a1.506,1.506,0,0,1-.755-.2l-4.808-2.776a1.513,1.513,0,0,1,1.513-2.62l4.808,2.776a1.513,1.513,0,0,1-.758,2.823Z" transform="translate(-33.285 -99.338)" fill="#ffd071"/>
      <path id="Caminho_315" data-name="Caminho 315" d="M445.93,364.617a1.506,1.506,0,0,1-.755-.2l-4.808-2.776a1.513,1.513,0,1,1,1.513-2.62l4.808,2.776a1.513,1.513,0,0,1-.758,2.823Z" transform="translate(-358.211 -286.933)" fill="#ffd071"/>
      <path id="Caminho_316" data-name="Caminho 316" d="M34.8,364.617a1.513,1.513,0,0,1-.758-2.823l4.808-2.776a1.513,1.513,0,0,1,1.513,2.62l-4.808,2.776A1.5,1.5,0,0,1,34.8,364.617Z" transform="translate(-33.283 -286.933)" fill="#ffd071"/>
      <path id="Caminho_317" data-name="Caminho 317" d="M441.124,130.026a1.513,1.513,0,0,1-.758-2.823l4.808-2.776a1.513,1.513,0,0,1,1.513,2.62l-4.808,2.776A1.5,1.5,0,0,1,441.124,130.026Z" transform="translate(-358.21 -99.338)" fill="#ffd071"/>
      <path id="Caminho_318" data-name="Caminho 318" d="M125.735,447.444a1.513,1.513,0,0,1-1.309-2.269l2.776-4.808a1.513,1.513,0,1,1,2.62,1.513l-2.776,4.808A1.512,1.512,0,0,1,125.735,447.444Z" transform="translate(-106.005 -351.543)" fill="#ffd071"/>
      <path id="Caminho_319" data-name="Caminho 319" d="M360.327,41.12a1.513,1.513,0,0,1-1.309-2.269l2.776-4.808a1.513,1.513,0,0,1,2.62,1.513l-2.776,4.808A1.512,1.512,0,0,1,360.327,41.12Z" transform="translate(-293.601 -26.618)" fill="#ffd071"/>
    </g>
  </g>
</svg>
